<svg width="91" height="63" viewBox="0 0 91 63" fill="none" xmlns="http://www.w3.org/2000/svg">
<path d="M3 58.7279C3.9887 44.2548 9.3926 40.3648 23.6242 40.9403C27.4236 41.094 31.1854 39.8575 33.926 37.2217L65.3639 6.98578C86.0818 -9.42005 100.91 30.1225 73.2514 30.1225H61.8201C58.2422 30.1225 54.8225 31.5971 52.3665 34.199L45.5926 41.3753" stroke="url(#paint0_linear_842_289)" stroke-width="5" stroke-linecap="round"/>
<circle cx="16.0407" cy="58.528" r="3.155" fill="url(#paint1_linear_842_289)"/>
<path d="M27.9692 56.0709C27.9692 54.8835 28.2458 53.8506 28.7988 52.9723C29.3518 52.0939 30.1163 51.4108 31.0923 50.9228C32.0682 50.4348 33.1662 50.1908 34.3861 50.1908C35.606 50.1908 36.6958 50.4348 37.6555 50.9228C38.6315 51.4108 39.396 52.0939 39.949 52.9723C40.5183 53.8506 40.803 54.8835 40.803 56.0709C40.803 57.242 40.5183 58.2668 39.949 59.1451C39.396 60.0235 38.6315 60.7067 37.6555 61.1946C36.6958 61.6826 35.606 61.9266 34.3861 61.9266C33.1662 61.9266 32.0682 61.6826 31.0923 61.1946C30.1163 60.7067 29.3518 60.0235 28.7988 59.1451C28.2458 58.2668 27.9692 57.242 27.9692 56.0709ZM31.751 56.0709C31.751 56.6565 31.873 57.1607 32.117 57.5836C32.361 57.9903 32.6782 58.3074 33.0686 58.5352C33.4589 58.7629 33.8981 58.8768 34.3861 58.8768C34.8578 58.8768 35.2888 58.7629 35.6792 58.5352C36.0859 58.3074 36.4031 57.9903 36.6308 57.5836C36.8748 57.1607 36.9968 56.6565 36.9968 56.0709C36.9968 55.4853 36.8748 54.9811 36.6308 54.5582C36.4031 54.1353 36.0859 53.81 35.6792 53.5822C35.2888 53.3545 34.8578 53.2407 34.3861 53.2407C33.8981 53.2407 33.4589 53.3545 33.0686 53.5822C32.6782 53.81 32.361 54.1353 32.117 54.5582C31.873 54.9811 31.751 55.4853 31.751 56.0709Z" fill="url(#paint2_linear_842_289)"/>
<path d="M44.0686 56.0709C44.0686 54.8835 44.3451 53.8506 44.8981 52.9723C45.4512 52.0939 46.2157 51.4108 47.1916 50.9228C48.1675 50.4348 49.2655 50.1908 50.4854 50.1908C51.7054 50.1908 52.7952 50.4348 53.7549 50.9228C54.7308 51.4108 55.4953 52.0939 56.0483 52.9723C56.6176 53.8506 56.9023 54.8835 56.9023 56.0709C56.9023 57.242 56.6176 58.2668 56.0483 59.1451C55.4953 60.0235 54.7308 60.7067 53.7549 61.1946C52.7952 61.6826 51.7054 61.9266 50.4854 61.9266C49.2655 61.9266 48.1675 61.6826 47.1916 61.1946C46.2157 60.7067 45.4512 60.0235 44.8981 59.1451C44.3451 58.2668 44.0686 57.242 44.0686 56.0709ZM47.8504 56.0709C47.8504 56.6565 47.9724 57.1607 48.2163 57.5836C48.4603 57.9903 48.7775 58.3074 49.1679 58.5352C49.5583 58.7629 49.9975 58.8768 50.4854 58.8768C50.9571 58.8768 51.3882 58.7629 51.7786 58.5352C52.1852 58.3074 52.5024 57.9903 52.7301 57.5836C52.9741 57.1607 53.0961 56.6565 53.0961 56.0709C53.0961 55.4853 52.9741 54.9811 52.7301 54.5582C52.5024 54.1353 52.1852 53.81 51.7786 53.5822C51.3882 53.3545 50.9571 53.2407 50.4854 53.2407C49.9975 53.2407 49.5583 53.3545 49.1679 53.5822C48.7775 53.81 48.4603 54.1353 48.2163 54.5582C47.9724 54.9811 47.8504 55.4853 47.8504 56.0709Z" fill="url(#paint3_linear_842_289)"/>
<path d="M59.4842 51.475C59.2438 51.0121 59.5796 50.4592 60.1012 50.4592C61.7865 50.4592 63.3063 51.4733 63.9532 53.0295L65.471 56.6809L66.9714 53.0371C67.6137 51.4772 69.1338 50.4592 70.8208 50.4592C71.3408 50.4592 71.676 51.0101 71.437 51.4719L66.3574 61.2872C65.9849 62.0071 64.9556 62.0079 64.5819 61.2886L59.4842 51.475Z" fill="url(#paint4_linear_842_289)"/>
<path d="M79.6794 53.9482H83.9492L88.209 60.1142C88.6672 60.7775 88.1924 61.6826 87.3862 61.6826H86.1338C85.0943 61.6826 84.1288 61.1445 83.5821 60.2603L79.6794 53.9482ZM75.4096 45.6035C75.4096 45.0512 75.8574 44.6035 76.4096 44.6035H79.533V60.6826C79.533 61.2349 79.0853 61.6826 78.533 61.6826H76.4096C75.8574 61.6826 75.4096 61.2349 75.4096 60.6826V45.6035ZM77.9959 48.0925V44.6035H81.6313C83.0952 44.6035 84.3152 44.8394 85.2911 45.3111C86.2671 45.7828 87.0072 46.4416 87.5114 47.2874C88.0156 48.1169 88.2678 49.0847 88.2678 50.1908C88.2678 51.2806 88.0156 52.2484 87.5114 53.0943C87.0072 53.9238 86.2671 54.5744 85.2911 55.0462C84.3152 55.5179 83.0952 55.7537 81.6313 55.7537H77.9959V52.5575H81.3385C81.8916 52.5575 82.3633 52.4762 82.7537 52.3135C83.1603 52.1346 83.4693 51.8825 83.6808 51.5571C83.8923 51.2156 83.998 50.8089 83.998 50.3372C83.998 49.8655 83.8923 49.467 83.6808 49.1417C83.4693 48.8001 83.1603 48.5398 82.7537 48.3609C82.3633 48.182 81.8916 48.0925 81.3385 48.0925H77.9959Z" fill="url(#paint5_linear_842_289)"/>
<defs>
<linearGradient id="paint0_linear_842_289" x1="45.6982" y1="3" x2="45.6982" y2="58.7279" gradientUnits="userSpaceOnUse">
<stop stop-color="#572083"/>
<stop offset="1" stop-color="#A75AF2"/>
</linearGradient>
<linearGradient id="paint1_linear_842_289" x1="16.0407" y1="55.373" x2="16.0407" y2="61.6831" gradientUnits="userSpaceOnUse">
<stop stop-color="#572083"/>
<stop offset="1" stop-color="#A75AF2"/>
</linearGradient>
<linearGradient id="paint2_linear_842_289" x1="58.6309" y1="44.6035" x2="58.6309" y2="63.0001" gradientUnits="userSpaceOnUse">
<stop stop-color="#572083"/>
<stop offset="1" stop-color="#A75AF2"/>
</linearGradient>
<linearGradient id="paint3_linear_842_289" x1="58.6309" y1="44.6035" x2="58.6309" y2="63.0001" gradientUnits="userSpaceOnUse">
<stop stop-color="#572083"/>
<stop offset="1" stop-color="#A75AF2"/>
</linearGradient>
<linearGradient id="paint4_linear_842_289" x1="58.6309" y1="44.6035" x2="58.6309" y2="63.0001" gradientUnits="userSpaceOnUse">
<stop stop-color="#572083"/>
<stop offset="1" stop-color="#A75AF2"/>
</linearGradient>
<linearGradient id="paint5_linear_842_289" x1="58.6309" y1="44.6035" x2="58.6309" y2="63.0001" gradientUnits="userSpaceOnUse">
<stop stop-color="#572083"/>
<stop offset="1" stop-color="#A75AF2"/>
</linearGradient>
</defs>
</svg>
