<svg width="39" height="24" viewBox="0 0 39 24" fill="none" xmlns="http://www.w3.org/2000/svg">
<g clip-path="url(#clip0_863_551)">
<path d="M24.7726 2.56738H14.2275V21.4341H24.7726V2.56738Z" fill="#FF5F00"/>
<path d="M14.8969 11.9998C14.8969 8.33318 16.6042 4.83318 19.4831 2.56651C14.2608 -1.53349 6.69514 -0.633488 2.57754 4.59984C-1.54006 9.79984 -0.636195 17.3332 4.6196 21.4332C9.00501 24.8665 15.1312 24.8665 19.5166 21.4332C16.6041 19.1665 14.8969 15.6665 14.8969 11.9998Z" fill="#EB001B"/>
<path d="M38.9999 11.9998C38.9999 18.6332 33.6102 23.9998 26.9484 23.9998C24.2368 23.9998 21.6256 23.0998 19.5166 21.4332C24.7389 17.3332 25.6428 9.79984 21.5252 4.56651C20.9226 3.83318 20.2531 3.13318 19.5166 2.56651C24.7389 -1.53349 32.3381 -0.633488 36.4222 4.59984C38.096 6.69984 38.9999 9.29984 38.9999 11.9998Z" fill="#F79E1B"/>
</g>
<defs>
<clipPath id="clip0_863_551">
<rect width="39" height="24" fill="white"/>
</clipPath>
</defs>
</svg>
