<svg width="235" height="123" viewBox="0 0 235 123" fill="none" xmlns="http://www.w3.org/2000/svg">
<path fill-rule="evenodd" clip-rule="evenodd" d="M15.8104 31.8887C7.07854 33.2451 1.09961 41.4233 2.45605 50.1551L11.2189 106.565C12.5754 115.296 20.7535 121.275 29.4853 119.919L37.9435 118.605C40.5545 118.199 42.0097 116.01 43.4781 113.8C44.885 111.683 46.304 109.548 48.7634 108.946C51.3418 108.316 53.4224 110.06 55.5231 111.822C57.5527 113.523 59.6011 115.241 62.1353 114.847L218.954 90.4861C227.686 89.1296 233.665 80.9515 232.308 72.2196L223.545 15.8102C222.189 7.07838 214.011 1.09944 205.279 2.45588L48.859 26.7548C46.256 27.1591 44.7868 29.5952 43.3467 31.9828C41.8116 34.528 40.3096 37.0182 37.5029 36.9341C34.9416 36.8572 32.9416 35.248 30.9768 33.667C28.8019 31.9171 26.6701 30.2017 23.8674 30.6371L15.8104 31.8887ZM38.9419 42.103C36.9851 42.4069 35.6452 44.2397 35.9492 46.1965L36.3268 48.627C36.6307 50.5838 38.4635 51.9237 40.4203 51.6197C42.3771 51.3158 43.7169 49.483 43.413 47.5262L43.0354 45.0957C42.7314 43.1389 40.8987 41.799 38.9419 42.103ZM37.9208 58.8855C37.6168 56.9287 38.9567 55.096 40.9135 54.792C42.8703 54.488 44.703 55.8279 45.007 57.7847L45.3846 60.2153C45.6885 62.1721 44.3487 64.0048 42.3919 64.3088C40.4351 64.6127 38.6024 63.2729 38.2984 61.3161L37.9208 58.8855ZM42.8851 67.481C40.9283 67.785 39.5884 69.6177 39.8924 71.5745L40.27 74.0051C40.574 75.9619 42.4067 77.3018 44.3635 76.9978C46.3203 76.6938 47.6602 74.8611 47.3562 72.9043L46.9786 70.4737C46.6746 68.5169 44.8419 67.177 42.8851 67.481ZM41.864 84.2635C41.56 82.3067 42.8999 80.474 44.8567 80.17C46.8135 79.8661 48.6462 81.2059 48.9502 83.1627L49.3278 85.5933C49.6318 87.5501 48.2919 89.3828 46.3351 89.6868C44.3783 89.9908 42.5456 88.6509 42.2416 86.6941L41.864 84.2635ZM46.8244 92.859C44.8676 93.163 43.5277 94.9957 43.8317 96.9525L44.2093 99.3831C44.5133 101.34 46.346 102.68 48.3028 102.376C50.2596 102.072 51.5995 100.239 51.2955 98.2823L50.9179 95.8517C50.6139 93.8949 48.7812 92.555 46.8244 92.859Z" fill="url(#paint0_radial_1376_1067)"/>
<path d="M89.9871 47.4174L92.5345 47.0113L97.2734 54.7942L97.408 54.7727L99.4921 45.9022L102.04 45.4961L103.871 56.9874L101.874 57.3058L100.615 49.4112L100.509 49.4282L98.586 57.7954L97.0935 58.0333L92.6619 50.6618L92.5553 50.6788L93.8165 58.5902L91.819 58.9087L89.9871 47.4174ZM109.835 56.2094C108.993 56.3436 108.234 56.2747 107.558 56.0028C106.882 55.7308 106.32 55.2891 105.874 54.6775C105.431 54.0653 105.138 53.3141 104.997 52.4238C104.855 51.5336 104.899 50.7268 105.129 50.0035C105.362 49.2797 105.758 48.6834 106.316 48.2147C106.874 47.746 107.574 47.4446 108.416 47.3104C109.258 47.1762 110.017 47.2451 110.693 47.5171C111.369 47.789 111.929 48.2329 112.372 48.8488C112.819 49.4641 113.114 50.2169 113.256 51.1072C113.398 51.9975 113.352 52.8027 113.117 53.5228C112.887 54.2423 112.492 54.8364 111.934 55.3051C111.376 55.7738 110.676 56.0752 109.835 56.2094ZM109.586 54.5804C110.043 54.5077 110.404 54.3216 110.671 54.022C110.937 53.7188 111.111 53.342 111.193 52.8917C111.278 52.4408 111.279 51.9535 111.196 51.4299C111.112 50.9024 110.959 50.4377 110.738 50.0357C110.519 49.6294 110.237 49.3235 109.889 49.118C109.542 48.9126 109.14 48.8462 108.684 48.919C108.216 48.9935 107.848 49.1827 107.578 49.4866C107.311 49.7898 107.136 50.1688 107.051 50.6234C106.97 51.0737 106.971 51.5625 107.055 52.09C107.138 52.6136 107.289 53.0768 107.506 53.4794C107.728 53.8814 108.012 54.1851 108.359 54.3905C108.71 54.5917 109.119 54.655 109.586 54.5804ZM119.448 54.677C118.606 54.8112 117.847 54.7423 117.171 54.4704C116.495 54.1984 115.933 53.7567 115.487 53.1451C115.044 52.5329 114.751 51.7817 114.61 50.8914C114.468 50.0011 114.512 49.1944 114.742 48.4711C114.975 47.7473 115.371 47.151 115.929 46.6823C116.487 46.2136 117.187 45.9122 118.029 45.778C118.871 45.6438 119.63 45.7127 120.306 45.9847C120.982 46.2566 121.542 46.7005 121.985 47.3164C122.432 47.9317 122.727 48.6845 122.869 49.5748C123.011 50.4651 122.965 51.2703 122.73 51.9904C122.5 52.7099 122.105 53.304 121.547 53.7727C120.989 54.2414 120.289 54.5428 119.448 54.677ZM119.199 53.048C119.656 52.9753 120.017 52.7892 120.284 52.4896C120.55 52.1864 120.724 51.8096 120.806 51.3593C120.891 50.9084 120.892 50.4211 120.809 49.8975C120.725 49.37 120.572 48.9053 120.351 48.5033C120.132 48.097 119.85 47.7911 119.502 47.5856C119.155 47.3802 118.753 47.3138 118.297 47.3866C117.829 47.4611 117.461 47.6503 117.191 47.9541C116.924 48.2574 116.749 48.6364 116.664 49.091C116.583 49.5413 116.584 50.0301 116.668 50.5576C116.751 51.0812 116.902 51.5444 117.119 51.947C117.341 52.3489 117.625 52.6527 117.972 52.8581C118.323 53.0593 118.732 53.1226 119.199 53.048ZM131.306 43.7767L129.61 52.8844L127.366 53.2421L122.923 45.1129L125.089 44.7677L128.09 50.8541L128.18 50.8398L129.145 44.121L131.306 43.7767ZM134.175 52.1567L132.343 40.6655L136.652 39.9785C137.535 39.8378 138.3 39.8731 138.948 40.0844C139.599 40.2952 140.122 40.6529 140.517 41.1576C140.915 41.658 141.172 42.2748 141.289 43.0079C141.407 43.7448 141.352 44.4095 141.124 45.002C140.899 45.5902 140.507 46.0803 139.949 46.4724C139.389 46.8608 138.668 47.1253 137.785 47.266L134.716 47.7553L134.44 46.0271L137.229 45.5826C137.745 45.5003 138.157 45.3618 138.463 45.1672C138.769 44.9689 138.979 44.7188 139.092 44.4169C139.208 44.1107 139.233 43.7538 139.168 43.346C139.103 42.9383 138.967 42.6032 138.761 42.3409C138.553 42.0747 138.273 41.8931 137.92 41.7959C137.566 41.695 137.13 41.686 136.61 41.7689L134.702 42.073L136.256 51.8249L134.175 52.1567ZM139.281 46.0034L142.956 50.7569L140.633 51.1272L137.009 46.3657L139.281 46.0034ZM148.371 49.8938L146.539 38.4025L150.848 37.7156C151.731 37.5749 152.498 37.6214 153.149 37.8552C153.803 38.0883 154.33 38.4685 154.729 38.9957C155.13 39.5185 155.389 40.1446 155.506 40.874C155.623 41.611 155.572 42.2903 155.353 42.9121C155.134 43.5339 154.747 44.0577 154.194 44.4835C153.64 44.9055 152.919 45.1872 152.033 45.3285L149.177 45.7838L148.904 44.0725L151.479 43.6619C151.996 43.5796 152.404 43.4225 152.705 43.1904C153.005 42.9584 153.209 42.6728 153.316 42.3335C153.427 41.9937 153.45 41.6199 153.385 41.2121C153.32 40.8044 153.182 40.4581 152.972 40.1733C152.765 39.8879 152.482 39.6857 152.121 39.5667C151.764 39.4433 151.325 39.4231 150.805 39.506L148.898 39.8101L150.452 49.562L148.371 49.8938ZM160.803 48.0903C160.257 48.1774 159.749 48.1586 159.281 48.0338C158.815 47.9047 158.424 47.6678 158.109 47.3231C157.797 46.9777 157.596 46.5227 157.505 45.9578C157.428 45.4715 157.454 45.0551 157.583 44.7085C157.711 44.362 157.916 44.0685 158.196 43.8283C158.476 43.588 158.803 43.3882 159.176 43.229C159.553 43.0654 159.947 42.9277 160.359 42.816C160.856 42.6832 161.258 42.5711 161.565 42.4799C161.872 42.3849 162.09 42.2812 162.218 42.1688C162.349 42.052 162.399 41.8963 162.368 41.7018L162.362 41.6682C162.295 41.2455 162.117 40.9381 161.83 40.7462C161.542 40.5542 161.163 40.4958 160.692 40.5709C160.194 40.6502 159.817 40.8216 159.559 41.0851C159.306 41.348 159.152 41.6352 159.098 41.9468L157.159 41.9798C157.225 41.4323 157.402 40.9553 157.69 40.5488C157.978 40.1386 158.356 39.8059 158.826 39.5508C159.295 39.2919 159.83 39.1145 160.433 39.0185C160.848 38.9523 161.269 38.935 161.696 38.9667C162.123 38.9984 162.524 39.0993 162.901 39.2694C163.276 39.4359 163.597 39.6935 163.864 40.0422C164.134 40.3904 164.315 40.8506 164.406 41.4229L165.326 47.191L163.373 47.5023L163.184 46.3184L163.117 46.3291C163.032 46.5882 162.893 46.8403 162.702 47.0856C162.514 47.3265 162.262 47.5374 161.946 47.7182C161.633 47.8948 161.252 48.0188 160.803 48.0903ZM161.092 46.5138C161.5 46.4488 161.841 46.312 162.114 46.1034C162.387 45.8911 162.583 45.6375 162.701 45.3425C162.822 45.047 162.858 44.7402 162.807 44.4223L162.645 43.4067C162.59 43.4692 162.489 43.5351 162.343 43.6044C162.201 43.6732 162.039 43.7393 161.857 43.8028C161.675 43.8663 161.495 43.9257 161.316 43.9811C161.137 44.0365 160.981 44.0843 160.849 44.1245C160.553 44.2139 160.293 44.3245 160.068 44.4561C159.844 44.5878 159.676 44.7489 159.564 44.9393C159.452 45.1259 159.417 45.3502 159.458 45.612C159.518 45.9861 159.7 46.2467 160.003 46.394C160.306 46.5412 160.67 46.5811 161.092 46.5138ZM173.169 39.4392L171.35 39.9363C171.267 39.7577 171.148 39.5965 170.99 39.4527C170.837 39.3084 170.644 39.2031 170.411 39.1367C170.178 39.0702 169.904 39.0621 169.59 39.1122C169.167 39.1795 168.826 39.3278 168.568 39.557C168.313 39.7857 168.21 40.0456 168.26 40.3367C168.297 40.5879 168.421 40.7772 168.633 40.9045C168.849 41.0312 169.183 41.1102 169.637 41.1414L171.157 41.2213C172.001 41.2671 172.651 41.4492 173.109 41.7675C173.57 42.0852 173.851 42.5524 173.953 43.169C174.036 43.712 173.953 44.2162 173.705 44.6815C173.461 45.1424 173.08 45.533 172.563 45.8532C172.046 46.1733 171.429 46.3907 170.711 46.5052C169.656 46.6733 168.772 46.588 168.058 46.2491C167.344 45.9066 166.861 45.3486 166.612 44.5753L168.562 44.0688C168.714 44.4435 168.951 44.7067 169.275 44.8584C169.598 45.0102 169.993 45.0488 170.461 44.9743C170.944 44.8973 171.315 44.7365 171.575 44.4917C171.839 44.2464 171.948 43.9778 171.901 43.686C171.862 43.4391 171.734 43.2505 171.518 43.12C171.305 42.989 170.993 42.9121 170.583 42.8893L169.064 42.815C168.21 42.7747 167.552 42.5823 167.091 42.2378C166.628 41.8895 166.349 41.4009 166.253 40.7718C166.164 40.2413 166.235 39.7582 166.465 39.3227C166.698 38.8828 167.059 38.5145 167.549 38.2178C168.041 37.9168 168.632 37.7114 169.32 37.6017C170.33 37.4407 171.159 37.5291 171.808 37.8668C172.46 38.204 172.914 38.7281 173.169 39.4392ZM181.841 38.0568L180.021 38.554C179.939 38.3753 179.819 38.2141 179.662 38.0704C179.509 37.9261 179.316 37.8207 179.083 37.7543C178.849 37.6879 178.576 37.6797 178.262 37.7298C177.839 37.7972 177.498 37.9455 177.239 38.1747C176.984 38.4033 176.882 38.6632 176.932 38.9544C176.968 39.2056 177.092 39.3948 177.305 39.5221C177.52 39.6488 177.855 39.7278 178.309 39.759L179.829 39.8389C180.673 39.8847 181.323 40.0668 181.78 40.3851C182.241 40.7029 182.523 41.17 182.625 41.7867C182.708 42.3297 182.625 42.8338 182.377 43.2991C182.132 43.7601 181.752 44.1506 181.235 44.4708C180.718 44.791 180.101 45.0083 179.383 45.1228C178.328 45.2909 177.443 45.2056 176.73 44.8668C176.015 44.5242 175.533 43.9662 175.283 43.1929L177.234 42.6864C177.385 43.0611 177.623 43.3243 177.946 43.4761C178.27 43.6278 178.665 43.6664 179.133 43.5919C179.615 43.515 179.987 43.3541 180.247 43.1094C180.511 42.864 180.619 42.5954 180.573 42.3037C180.534 42.0568 180.406 41.8681 180.189 41.7377C179.977 41.6066 179.665 41.5297 179.255 41.5069L177.736 41.4326C176.882 41.3923 176.224 41.1999 175.762 40.8554C175.3 40.5071 175.021 40.0185 174.924 39.3895C174.836 38.8589 174.907 38.3758 175.136 37.9403C175.369 37.5004 175.731 37.1321 176.22 36.8354C176.713 36.5344 177.304 36.329 177.992 36.2193C179.002 36.0583 179.831 36.1467 180.48 36.4844C181.132 36.8216 181.585 37.3457 181.841 38.0568Z" fill="white"/>
<path d="M85.2463 99.4455L85.125 98.6881L87.4709 95.1189C87.7463 94.7008 87.9705 94.3398 88.1434 94.0359C88.3158 93.7292 88.4348 93.4483 88.5004 93.1933C88.5684 92.935 88.5813 92.674 88.5391 92.4103C88.4906 92.1073 88.3756 91.8567 88.1943 91.6585C88.0157 91.4598 87.792 91.3201 87.523 91.2394C87.254 91.1588 86.9638 91.1434 86.6525 91.1933C86.3215 91.2463 86.0435 91.3612 85.8187 91.5382C85.5962 91.7119 85.4372 91.9316 85.3416 92.1972C85.2488 92.4624 85.2287 92.7591 85.2813 93.0873L84.2882 93.2463C84.2074 92.7413 84.2528 92.2795 84.4246 91.8607C84.5963 91.4419 84.8657 91.0938 85.2327 90.8164C85.6025 90.5385 86.0385 90.3594 86.5406 90.279C87.0455 90.1981 87.51 90.2331 87.9341 90.3839C88.3581 90.5346 88.7099 90.7732 88.9895 91.0996C89.269 91.426 89.4443 91.8108 89.5153 92.254C89.566 92.571 89.5582 92.8901 89.4916 93.2115C89.4275 93.5296 89.2848 93.8963 89.0636 94.3115C88.8447 94.7234 88.5309 95.234 88.122 95.8433L86.5179 98.2234L86.5287 98.2907L90.5345 97.6493L90.6827 98.575L85.2463 99.4455ZM91.7505 96.5915L91.613 95.7331L94.4406 89.1349L95.0634 89.0352L95.2763 90.3649L94.8555 90.4322L92.7191 95.4179L92.7299 95.4852L97.8297 94.6687L97.978 95.5944L91.7505 96.5915ZM96.0897 97.7093L95.765 95.6812L95.701 95.2814L94.7099 89.0918L95.703 88.9328L97.0828 97.5503L96.0897 97.7093ZM100.225 93.0595L100.848 96.9475L99.8546 97.1065L98.4748 88.489L99.4679 88.33L99.9745 91.4942L100.059 91.4807C100.157 91.1227 100.341 90.8212 100.613 90.5763C100.887 90.3282 101.278 90.1635 101.785 90.0822C102.226 90.0117 102.626 90.0383 102.985 90.162C103.344 90.2829 103.643 90.5097 103.884 90.8424C104.126 91.1718 104.292 91.6142 104.381 92.1697L105.039 96.2764L104.046 96.4354L103.399 92.396C103.317 91.8826 103.12 91.507 102.808 91.2692C102.499 91.0281 102.111 90.945 101.642 91.0201C101.317 91.0722 101.036 91.1876 100.8 91.3664C100.567 91.5447 100.397 91.7776 100.29 92.0651C100.187 92.3521 100.165 92.6836 100.225 93.0595ZM109.502 95.6998C108.919 95.7932 108.385 95.7363 107.9 95.5291C107.418 95.3215 107.013 94.9878 106.687 94.528C106.363 94.0677 106.147 93.5038 106.04 92.8362C105.933 92.1629 105.96 91.5557 106.124 91.0145C106.291 90.4728 106.57 90.0281 106.963 89.6803C107.359 89.3321 107.849 89.1113 108.433 89.0179C109.016 88.9244 109.549 88.9816 110.031 89.1892C110.516 89.3964 110.92 89.7315 111.245 90.1946C111.572 90.6572 111.79 91.2251 111.898 91.8983C112.004 92.566 111.974 93.1692 111.807 93.7081C111.643 94.2465 111.363 94.6898 110.967 95.038C110.574 95.3858 110.086 95.6064 109.502 95.6998ZM109.36 94.8078C109.803 94.7368 110.149 94.5648 110.399 94.2918C110.649 94.0187 110.813 93.6861 110.891 93.2938C110.969 92.9015 110.974 92.4893 110.904 92.0573C110.835 91.6253 110.702 91.2338 110.505 90.8827C110.308 90.5316 110.048 90.264 109.725 90.0798C109.402 89.8956 109.019 89.8389 108.575 89.9099C108.132 89.9809 107.786 90.1543 107.537 90.4301C107.287 90.706 107.124 91.0414 107.046 91.4365C106.968 91.8316 106.964 92.2452 107.033 92.6772C107.103 93.1092 107.235 93.4993 107.432 93.8476C107.629 94.1958 107.889 94.4607 108.211 94.6421C108.534 94.8235 108.916 94.8787 109.36 94.8078ZM117.575 91.5589L116.964 87.7382L117.957 87.5792L118.992 94.0424L117.999 94.2014L117.823 93.1073L117.756 93.1181C117.657 93.4706 117.466 93.7874 117.183 94.0686C116.9 94.3471 116.514 94.5254 116.026 94.6035C115.622 94.6682 115.249 94.6373 114.906 94.5109C114.563 94.3817 114.273 94.1519 114.036 93.8216C113.799 93.4885 113.636 93.047 113.548 92.4972L112.891 88.3904L113.884 88.2314L114.53 92.2709C114.606 92.7421 114.798 93.0969 115.106 93.3352C115.418 93.5731 115.78 93.659 116.192 93.5929C116.439 93.5534 116.68 93.4501 116.915 93.283C117.153 93.1154 117.338 92.8873 117.47 92.5986C117.605 92.3094 117.64 91.9628 117.575 91.5589ZM120.81 93.7511L119.776 87.288L120.735 87.1344L120.891 88.1106L120.959 88.0998C121.025 87.7612 121.197 87.4675 121.473 87.219C121.75 86.9704 122.082 86.8151 122.469 86.7531C122.542 86.7415 122.633 86.7283 122.743 86.7136C122.853 86.6988 122.937 86.6898 122.994 86.6864L123.155 87.6963C123.12 87.6933 123.041 87.693 122.918 87.6955C122.797 87.6947 122.67 87.7049 122.539 87.726C122.224 87.7763 121.954 87.8871 121.729 88.0585C121.505 88.2266 121.341 88.4371 121.234 88.6901C121.13 88.9397 121.102 89.2104 121.149 89.5022L121.803 93.5921L120.81 93.7511ZM128.994 87.2966L128.142 87.6919C128.062 87.5522 127.957 87.4209 127.825 87.2982C127.695 87.1722 127.53 87.0777 127.331 87.0148C127.131 86.9519 126.886 86.9436 126.597 86.9898C126.202 87.0532 125.887 87.1971 125.652 87.4217C125.42 87.643 125.326 87.8925 125.371 88.1702C125.41 88.417 125.531 88.5976 125.734 88.7119C125.936 88.8263 126.236 88.9006 126.632 88.9349L127.63 89.0169C128.23 89.0646 128.695 89.2103 129.024 89.4538C129.354 89.6946 129.554 90.0408 129.627 90.4924C129.686 90.8627 129.632 91.2108 129.466 91.5367C129.302 91.8621 129.044 92.1393 128.693 92.3682C128.341 92.5972 127.914 92.7518 127.412 92.8322C126.753 92.9378 126.184 92.8821 125.706 92.6651C125.228 92.4482 124.888 92.074 124.685 91.5426L125.59 91.156C125.735 91.4895 125.947 91.7232 126.224 91.8572C126.505 91.9907 126.848 92.0248 127.255 91.9597C127.718 91.8856 128.069 91.7286 128.31 91.4887C128.553 91.2455 128.652 90.985 128.608 90.7073C128.572 90.4829 128.463 90.3075 128.282 90.1812C128.1 90.0521 127.841 89.9757 127.503 89.952L126.385 89.8721C125.771 89.8266 125.301 89.6788 124.977 89.4287C124.654 89.1754 124.457 88.8257 124.386 88.3797C124.327 88.015 124.378 87.676 124.538 87.3627C124.701 87.0489 124.947 86.7836 125.278 86.5667C125.611 86.3493 126.005 86.2042 126.46 86.1314C127.099 86.029 127.624 86.0889 128.033 86.311C128.446 86.5327 128.766 86.8612 128.994 87.2966Z" fill="white"/>
<path d="M193.87 83.0661L193.708 82.0563L196.836 77.2973C197.203 76.7398 197.502 76.2585 197.733 75.8533C197.963 75.4444 198.121 75.0699 198.209 74.7298C198.3 74.3854 198.317 74.0374 198.26 73.6858C198.196 73.2819 198.043 72.9477 197.801 72.6834C197.563 72.4185 197.264 72.2322 196.906 72.1247C196.547 72.0172 196.16 71.9967 195.745 72.0631C195.304 72.1338 194.933 72.2871 194.633 72.5231C194.337 72.7547 194.125 73.0476 193.997 73.4018C193.873 73.7553 193.847 74.1509 193.917 74.5885L192.593 74.8005C192.485 74.1272 192.545 73.5114 192.774 72.9531C193.003 72.3947 193.363 71.9305 193.852 71.5606C194.345 71.1901 194.926 70.9513 195.596 70.8441C196.269 70.7363 196.888 70.7829 197.454 70.9839C198.019 71.1849 198.488 71.503 198.861 71.9382C199.234 72.3734 199.467 72.8865 199.562 73.4774C199.63 73.9001 199.619 74.3256 199.531 74.7541C199.445 75.1783 199.255 75.6672 198.96 76.2208C198.668 76.77 198.249 77.4508 197.704 78.2631L195.566 81.4367L195.58 81.5264L200.921 80.6712L201.119 81.9055L193.87 83.0661ZM207.051 81.1167C206.393 81.2221 205.779 81.1861 205.21 81.0087C204.641 80.8313 204.161 80.54 203.77 80.1345C203.379 79.7291 203.122 79.2371 202.998 78.6584L204.345 78.4428C204.48 78.9543 204.785 79.3467 205.258 79.62C205.735 79.889 206.267 79.9764 206.854 79.8824C207.325 79.8069 207.726 79.6295 208.058 79.3502C208.393 79.0702 208.634 78.7208 208.782 78.3021C208.933 77.8789 208.969 77.4224 208.89 76.9324C208.81 76.4312 208.628 76.0019 208.345 75.6445C208.064 75.2828 207.715 75.0184 207.297 74.8513C206.879 74.6843 206.425 74.6381 205.934 74.7128C205.582 74.7654 205.23 74.8774 204.877 75.0489C204.524 75.2166 204.242 75.4057 204.03 75.6161L202.703 75.6674L202.494 69.9008L208.463 68.945L208.661 70.1792L203.858 70.9482L203.997 74.4015L204.064 74.3908C204.27 74.166 204.54 73.9635 204.876 73.7832C205.212 73.6028 205.572 73.4818 205.957 73.4202C206.66 73.3076 207.314 73.3756 207.918 73.6242C208.524 73.8684 209.031 74.2552 209.438 74.7847C209.849 75.3135 210.114 75.9501 210.233 76.6944C210.351 77.4275 210.291 78.1084 210.054 78.7371C209.82 79.3614 209.444 79.8858 208.925 80.3104C208.405 80.7311 207.781 80.9999 207.051 81.1167Z" fill="white"/>
<path d="M189.113 79.857L187.63 80.0944L187.402 78.6702L188.885 78.4328C189.108 78.3971 189.259 78.1879 189.224 77.9652C189.188 77.7425 188.979 77.591 188.756 77.6266L187.273 77.864L186.957 75.8879C186.91 75.5995 186.82 75.3969 186.686 75.2859C186.56 75.1803 186.41 75.1457 186.216 75.1769C186.03 75.2066 185.904 75.2849 185.819 75.4236C185.728 75.5705 185.706 75.7917 185.752 76.0809L186.069 78.0571L183.28 78.5037L181.807 76.9001C181.679 76.7563 181.56 76.6217 181.444 76.4926C181.34 76.3763 181.242 76.2838 181.152 76.2174C181.073 76.1585 180.987 76.1169 180.89 76.09C180.798 76.0646 180.686 76.0624 180.557 76.083C180.393 76.1093 180.251 76.1781 180.123 76.2933C179.997 76.4073 179.917 76.5359 179.88 76.6864C179.849 76.8288 179.854 77.0386 179.897 77.3036L180.169 79.0017L178.701 79.2367C178.478 79.2724 178.326 79.4817 178.362 79.7044C178.398 79.9271 178.607 80.0786 178.83 80.0429L180.298 79.8078L180.526 81.2322L179.058 81.4672C178.835 81.5029 178.684 81.7122 178.719 81.9349C178.755 82.1576 178.964 82.3089 179.187 82.2733L180.655 82.0382L181.016 84.2944C181.061 84.5744 181.153 84.7745 181.291 84.889C181.422 84.9983 181.572 85.0347 181.763 85.0041C181.948 84.9747 182.077 84.8931 182.173 84.7474C182.27 84.5981 182.297 84.379 182.251 84.0967L181.89 81.8404L184.414 81.4363L186.115 83.3107C186.232 83.4338 186.352 83.5578 186.472 83.6791C186.58 83.7879 186.694 83.8808 186.81 83.9551C186.914 84.0223 187.022 84.0666 187.13 84.0868C187.241 84.1078 187.366 84.1073 187.502 84.0855C187.872 84.0264 188.232 83.8528 188.098 83.0147L187.759 80.9007L189.242 80.6633C189.465 80.6276 189.616 80.4182 189.581 80.1956C189.545 79.9729 189.336 79.8213 189.113 79.857ZM186.198 78.8631L186.426 80.2872L185.112 80.4976L183.942 79.2242L186.198 78.8631ZM181.271 77.9735L181.946 78.717L181.404 78.8038L181.271 77.9735ZM181.761 81.0341L181.533 79.6099L182.601 79.4389L183.759 80.7143L181.761 81.0341ZM186.744 82.2751L185.774 81.2186L186.555 81.0936L186.744 82.2751Z" fill="white"/>
<defs>
<radialGradient id="paint0_radial_1376_1067" cx="0" cy="0" r="1" gradientUnits="userSpaceOnUse" gradientTransform="translate(53.5447 70.698) rotate(-8.82998) scale(176.411 554.949)">
<stop stop-color="#572083"/>
<stop offset="1" stop-color="#A75AF2"/>
</radialGradient>
</defs>
</svg>
