<svg width="235" height="123" viewBox="0 0 235 123" fill="none" xmlns="http://www.w3.org/2000/svg">
<path fill-rule="evenodd" clip-rule="evenodd" d="M15.8104 31.8887C7.07854 33.2451 1.09961 41.4233 2.45605 50.1551L11.2189 106.565C12.5754 115.296 20.7535 121.275 29.4853 119.919L37.9435 118.605C40.5545 118.199 42.0097 116.01 43.4781 113.8C44.885 111.683 46.304 109.548 48.7634 108.946C51.3418 108.316 53.4224 110.06 55.5231 111.822C57.5527 113.523 59.6011 115.241 62.1353 114.847L218.954 90.4861C227.686 89.1296 233.665 80.9515 232.308 72.2196L223.545 15.8102C222.189 7.07838 214.011 1.09944 205.279 2.45588L48.859 26.7548C46.256 27.1591 44.7868 29.5952 43.3467 31.9828C41.8116 34.528 40.3096 37.0182 37.5029 36.9341C34.9416 36.8572 32.9416 35.248 30.9768 33.667C28.8019 31.9171 26.6701 30.2017 23.8674 30.6371L15.8104 31.8887ZM38.9419 42.103C36.9851 42.4069 35.6452 44.2397 35.9492 46.1965L36.3268 48.627C36.6307 50.5838 38.4635 51.9237 40.4203 51.6197C42.3771 51.3158 43.7169 49.483 43.413 47.5262L43.0354 45.0957C42.7314 43.1389 40.8987 41.799 38.9419 42.103ZM37.9208 58.8855C37.6168 56.9287 38.9567 55.096 40.9135 54.792C42.8703 54.488 44.703 55.8279 45.007 57.7847L45.3846 60.2153C45.6885 62.1721 44.3487 64.0048 42.3919 64.3088C40.4351 64.6127 38.6024 63.2729 38.2984 61.3161L37.9208 58.8855ZM42.8851 67.481C40.9283 67.785 39.5884 69.6177 39.8924 71.5745L40.27 74.0051C40.574 75.9619 42.4067 77.3018 44.3635 76.9978C46.3203 76.6938 47.6602 74.8611 47.3562 72.9043L46.9786 70.4737C46.6746 68.5169 44.8419 67.177 42.8851 67.481ZM41.864 84.2635C41.56 82.3067 42.8999 80.474 44.8567 80.17C46.8135 79.8661 48.6462 81.2059 48.9502 83.1627L49.3278 85.5933C49.6318 87.5501 48.2919 89.3828 46.3351 89.6868C44.3783 89.9908 42.5456 88.6509 42.2416 86.6941L41.864 84.2635ZM46.8244 92.859C44.8676 93.163 43.5277 94.9957 43.8317 96.9525L44.2093 99.3831C44.5133 101.34 46.346 102.68 48.3028 102.376C50.2596 102.072 51.5995 100.239 51.2955 98.2823L50.9179 95.8517C50.6139 93.8949 48.7812 92.555 46.8244 92.859Z" fill="url(#paint0_radial_1376_1106)"/>
<path d="M89.9871 47.4174L92.5345 47.0113L97.2734 54.7942L97.408 54.7727L99.4921 45.9022L102.04 45.4961L103.871 56.9874L101.874 57.3058L100.615 49.4112L100.509 49.4282L98.586 57.7954L97.0935 58.0333L92.6619 50.6618L92.5553 50.6788L93.8165 58.5902L91.819 58.9087L89.9871 47.4174ZM109.835 56.2094C108.993 56.3436 108.234 56.2747 107.558 56.0028C106.882 55.7308 106.32 55.2891 105.874 54.6775C105.431 54.0653 105.138 53.3141 104.997 52.4238C104.855 51.5336 104.899 50.7268 105.129 50.0035C105.362 49.2797 105.758 48.6834 106.316 48.2147C106.874 47.746 107.574 47.4446 108.416 47.3104C109.258 47.1762 110.017 47.2451 110.693 47.5171C111.369 47.789 111.929 48.2329 112.372 48.8488C112.819 49.4641 113.114 50.2169 113.256 51.1072C113.398 51.9975 113.352 52.8027 113.117 53.5228C112.887 54.2423 112.492 54.8364 111.934 55.3051C111.376 55.7738 110.676 56.0752 109.835 56.2094ZM109.586 54.5804C110.043 54.5077 110.404 54.3216 110.671 54.022C110.937 53.7188 111.111 53.342 111.193 52.8917C111.278 52.4408 111.279 51.9535 111.196 51.4299C111.112 50.9024 110.959 50.4377 110.738 50.0357C110.519 49.6294 110.237 49.3235 109.889 49.118C109.542 48.9126 109.14 48.8462 108.684 48.919C108.216 48.9935 107.848 49.1827 107.578 49.4866C107.311 49.7898 107.136 50.1688 107.051 50.6234C106.97 51.0737 106.971 51.5625 107.055 52.09C107.138 52.6136 107.289 53.0768 107.506 53.4794C107.728 53.8814 108.012 54.1851 108.359 54.3905C108.71 54.5917 109.119 54.655 109.586 54.5804ZM119.448 54.677C118.606 54.8112 117.847 54.7423 117.171 54.4704C116.495 54.1984 115.933 53.7567 115.487 53.1451C115.044 52.5329 114.751 51.7817 114.61 50.8914C114.468 50.0011 114.512 49.1944 114.742 48.4711C114.975 47.7473 115.371 47.151 115.929 46.6823C116.487 46.2136 117.187 45.9122 118.029 45.778C118.871 45.6438 119.63 45.7127 120.306 45.9847C120.982 46.2566 121.542 46.7005 121.985 47.3164C122.432 47.9317 122.727 48.6845 122.869 49.5748C123.011 50.4651 122.965 51.2703 122.73 51.9904C122.5 52.7099 122.105 53.304 121.547 53.7727C120.989 54.2414 120.289 54.5428 119.448 54.677ZM119.199 53.048C119.656 52.9753 120.017 52.7892 120.284 52.4896C120.55 52.1864 120.724 51.8096 120.806 51.3593C120.891 50.9084 120.892 50.4211 120.809 49.8975C120.725 49.37 120.572 48.9053 120.351 48.5033C120.132 48.097 119.85 47.7911 119.502 47.5856C119.155 47.3802 118.753 47.3138 118.297 47.3866C117.829 47.4611 117.461 47.6503 117.191 47.9541C116.924 48.2574 116.749 48.6364 116.664 49.091C116.583 49.5413 116.584 50.0301 116.668 50.5576C116.751 51.0812 116.902 51.5444 117.119 51.947C117.341 52.3489 117.625 52.6527 117.972 52.8581C118.323 53.0593 118.732 53.1226 119.199 53.048ZM131.306 43.7767L129.61 52.8844L127.366 53.2421L122.923 45.1129L125.089 44.7677L128.09 50.8541L128.18 50.8398L129.145 44.121L131.306 43.7767ZM134.175 52.1567L132.343 40.6655L136.652 39.9785C137.535 39.8378 138.3 39.8731 138.948 40.0844C139.599 40.2952 140.122 40.6529 140.517 41.1576C140.915 41.658 141.172 42.2748 141.289 43.0079C141.407 43.7448 141.352 44.4095 141.124 45.002C140.899 45.5902 140.507 46.0803 139.949 46.4724C139.389 46.8608 138.668 47.1253 137.785 47.266L134.716 47.7553L134.44 46.0271L137.229 45.5826C137.745 45.5003 138.157 45.3618 138.463 45.1672C138.769 44.9689 138.979 44.7188 139.092 44.4169C139.208 44.1107 139.233 43.7538 139.168 43.346C139.103 42.9383 138.967 42.6032 138.761 42.3409C138.553 42.0747 138.273 41.8931 137.92 41.7959C137.566 41.695 137.13 41.686 136.61 41.7689L134.702 42.073L136.256 51.8249L134.175 52.1567ZM139.281 46.0034L142.956 50.7569L140.633 51.1272L137.009 46.3657L139.281 46.0034ZM148.371 49.8938L146.539 38.4025L150.848 37.7156C151.731 37.5749 152.498 37.6214 153.149 37.8552C153.803 38.0883 154.33 38.4685 154.729 38.9957C155.13 39.5185 155.389 40.1446 155.506 40.874C155.623 41.611 155.572 42.2903 155.353 42.9121C155.134 43.5339 154.747 44.0577 154.194 44.4835C153.64 44.9055 152.919 45.1872 152.033 45.3285L149.177 45.7838L148.904 44.0725L151.479 43.6619C151.996 43.5796 152.404 43.4225 152.705 43.1904C153.005 42.9584 153.209 42.6728 153.316 42.3335C153.427 41.9937 153.45 41.6199 153.385 41.2121C153.32 40.8044 153.182 40.4581 152.972 40.1733C152.765 39.8879 152.482 39.6857 152.121 39.5667C151.764 39.4433 151.325 39.4231 150.805 39.506L148.898 39.8101L150.452 49.562L148.371 49.8938ZM160.803 48.0903C160.257 48.1774 159.749 48.1586 159.281 48.0338C158.815 47.9047 158.424 47.6678 158.109 47.3231C157.797 46.9777 157.596 46.5227 157.505 45.9578C157.428 45.4715 157.454 45.0551 157.583 44.7085C157.711 44.362 157.916 44.0685 158.196 43.8283C158.476 43.588 158.803 43.3882 159.176 43.229C159.553 43.0654 159.947 42.9277 160.359 42.816C160.856 42.6832 161.258 42.5711 161.565 42.4799C161.872 42.3849 162.09 42.2812 162.218 42.1688C162.349 42.052 162.399 41.8963 162.368 41.7018L162.362 41.6682C162.295 41.2455 162.117 40.9381 161.83 40.7462C161.542 40.5542 161.163 40.4958 160.692 40.5709C160.194 40.6502 159.817 40.8216 159.559 41.0851C159.306 41.348 159.152 41.6352 159.098 41.9468L157.159 41.9798C157.225 41.4323 157.402 40.9553 157.69 40.5488C157.978 40.1386 158.356 39.8059 158.826 39.5508C159.295 39.2919 159.83 39.1145 160.433 39.0185C160.848 38.9523 161.269 38.935 161.696 38.9667C162.123 38.9984 162.524 39.0993 162.901 39.2694C163.276 39.4359 163.597 39.6935 163.864 40.0422C164.134 40.3904 164.315 40.8506 164.406 41.4229L165.326 47.191L163.373 47.5023L163.184 46.3184L163.117 46.3291C163.032 46.5882 162.893 46.8403 162.702 47.0856C162.514 47.3265 162.262 47.5374 161.946 47.7182C161.633 47.8948 161.252 48.0188 160.803 48.0903ZM161.092 46.5138C161.5 46.4488 161.841 46.312 162.114 46.1034C162.387 45.8911 162.583 45.6375 162.701 45.3425C162.822 45.047 162.858 44.7402 162.807 44.4223L162.645 43.4067C162.59 43.4692 162.489 43.5351 162.343 43.6044C162.201 43.6732 162.039 43.7393 161.857 43.8028C161.675 43.8663 161.495 43.9257 161.316 43.9811C161.137 44.0365 160.981 44.0843 160.849 44.1245C160.553 44.2139 160.293 44.3245 160.068 44.4561C159.844 44.5878 159.676 44.7489 159.564 44.9393C159.452 45.1259 159.417 45.3502 159.458 45.612C159.518 45.9861 159.7 46.2467 160.003 46.394C160.306 46.5412 160.67 46.5811 161.092 46.5138ZM173.169 39.4392L171.35 39.9363C171.267 39.7577 171.148 39.5965 170.99 39.4527C170.837 39.3084 170.644 39.2031 170.411 39.1367C170.178 39.0702 169.904 39.0621 169.59 39.1122C169.167 39.1795 168.826 39.3278 168.568 39.557C168.313 39.7857 168.21 40.0456 168.26 40.3367C168.297 40.5879 168.421 40.7772 168.633 40.9045C168.849 41.0312 169.183 41.1102 169.637 41.1414L171.157 41.2213C172.001 41.2671 172.651 41.4492 173.109 41.7675C173.57 42.0852 173.851 42.5524 173.953 43.169C174.036 43.712 173.953 44.2162 173.705 44.6815C173.461 45.1424 173.08 45.533 172.563 45.8532C172.046 46.1733 171.429 46.3907 170.711 46.5052C169.656 46.6733 168.772 46.588 168.058 46.2491C167.344 45.9066 166.861 45.3486 166.612 44.5753L168.562 44.0688C168.714 44.4435 168.951 44.7067 169.275 44.8584C169.598 45.0102 169.993 45.0488 170.461 44.9743C170.944 44.8973 171.315 44.7365 171.575 44.4917C171.839 44.2464 171.948 43.9778 171.901 43.686C171.862 43.4391 171.734 43.2505 171.518 43.12C171.305 42.989 170.993 42.9121 170.583 42.8893L169.064 42.815C168.21 42.7747 167.552 42.5823 167.091 42.2378C166.628 41.8895 166.349 41.4009 166.253 40.7718C166.164 40.2413 166.235 39.7582 166.465 39.3227C166.698 38.8828 167.059 38.5145 167.549 38.2178C168.041 37.9168 168.632 37.7114 169.32 37.6017C170.33 37.4407 171.159 37.5291 171.808 37.8668C172.46 38.204 172.914 38.7281 173.169 39.4392ZM181.841 38.0568L180.021 38.554C179.939 38.3753 179.819 38.2141 179.662 38.0704C179.509 37.9261 179.316 37.8207 179.083 37.7543C178.849 37.6879 178.576 37.6797 178.262 37.7298C177.839 37.7972 177.498 37.9455 177.239 38.1747C176.984 38.4033 176.882 38.6632 176.932 38.9544C176.968 39.2056 177.092 39.3948 177.305 39.5221C177.52 39.6488 177.855 39.7278 178.309 39.759L179.829 39.8389C180.673 39.8847 181.323 40.0668 181.78 40.3851C182.241 40.7029 182.523 41.17 182.625 41.7867C182.708 42.3297 182.625 42.8338 182.377 43.2991C182.132 43.7601 181.752 44.1506 181.235 44.4708C180.718 44.791 180.101 45.0083 179.383 45.1228C178.328 45.2909 177.443 45.2056 176.73 44.8668C176.015 44.5242 175.533 43.9662 175.283 43.1929L177.234 42.6864C177.385 43.0611 177.623 43.3243 177.946 43.4761C178.27 43.6278 178.665 43.6664 179.133 43.5919C179.615 43.515 179.987 43.3541 180.247 43.1094C180.511 42.864 180.619 42.5954 180.573 42.3037C180.534 42.0568 180.406 41.8681 180.189 41.7377C179.977 41.6066 179.665 41.5297 179.255 41.5069L177.736 41.4326C176.882 41.3923 176.224 41.1999 175.762 40.8554C175.3 40.5071 175.021 40.0185 174.924 39.3895C174.836 38.8589 174.907 38.3758 175.136 37.9403C175.369 37.5004 175.731 37.1321 176.22 36.8354C176.713 36.5344 177.304 36.329 177.992 36.2193C179.002 36.0583 179.831 36.1467 180.48 36.4844C181.132 36.8216 181.585 37.3457 181.841 38.0568Z" fill="white"/>
<path d="M88.076 99.1133C87.442 99.2148 86.8744 99.1287 86.3731 98.8551C85.8714 98.5787 85.4499 98.1297 85.1087 97.5082C84.7671 96.8839 84.5213 96.1033 84.3713 95.1664C84.2221 94.2351 84.2126 93.4209 84.3427 92.724C84.4751 92.0238 84.7365 91.4641 85.1269 91.0448C85.5195 90.6223 86.0301 90.3607 86.6584 90.2601C87.2868 90.1595 87.8521 90.2488 88.3542 90.5281C88.8587 90.804 89.2818 91.2542 89.6235 91.8785C89.9674 92.4995 90.214 93.2757 90.3631 94.207C90.5131 95.1439 90.5233 95.9623 90.3937 96.662C90.2636 97.359 90.0034 97.9171 89.6131 98.3363C89.2223 98.7528 88.7099 99.0118 88.076 99.1133ZM87.9277 98.1876C88.5561 98.0869 88.9957 97.7058 89.2465 97.0442C89.4973 96.3826 89.5329 95.4908 89.3533 94.3687C89.2338 93.6225 89.0521 92.9999 88.8082 92.501C88.5671 92.0016 88.2759 91.6382 87.9345 91.4109C87.596 91.1832 87.2191 91.1025 86.804 91.169C86.1812 91.2687 85.7437 91.6538 85.4914 92.3243C85.2387 92.992 85.2019 93.8854 85.3811 95.0047C85.5006 95.7509 85.6807 96.3723 85.9213 96.8689C86.1619 97.3655 86.4513 97.7263 86.7894 97.9512C87.1303 98.1757 87.5098 98.2545 87.9277 98.1876ZM94.3018 89.1571L95.6816 97.7747L94.638 97.9417L93.4334 90.4182L93.3829 90.4263L91.5027 92.1602L91.3329 91.0998L93.2582 89.3242L94.3018 89.1571ZM99.5236 88.321L100.719 88.1297L103.753 91.7697L103.854 91.7535L105.6 87.3482L106.795 87.1568L104.492 92.7216L105.061 96.2729L104.017 96.44L103.449 92.8886L99.5236 88.321ZM111.207 95.4269C110.584 95.5267 110.025 95.4752 109.529 95.2726C109.036 95.0668 108.627 94.7351 108.304 94.2777C107.983 93.817 107.769 93.2556 107.663 92.5936C107.557 91.9316 107.584 91.3288 107.745 90.7852C107.907 90.2384 108.183 89.7885 108.573 89.4356C108.965 89.0794 109.452 88.8546 110.036 88.7612C110.372 88.7073 110.714 88.7102 111.06 88.7698C111.406 88.8295 111.734 88.964 112.044 89.1733C112.353 89.3799 112.621 89.6765 112.847 90.0633C113.073 90.45 113.234 90.945 113.33 91.5481L113.398 91.9689L108.416 92.7666L108.278 91.9082L112.25 91.2722C112.192 90.9075 112.067 90.5938 111.875 90.331C111.686 90.0678 111.445 89.8747 111.152 89.7519C110.862 89.6286 110.538 89.5957 110.179 89.6532C109.783 89.7166 109.457 89.8695 109.199 90.1122C108.944 90.3515 108.764 90.6393 108.66 90.9753C108.555 91.3114 108.532 91.6576 108.589 92.0138L108.68 92.5861C108.758 93.0742 108.909 93.4745 109.131 93.787C109.357 94.0962 109.635 94.3149 109.966 94.4431C110.297 94.5685 110.663 94.5991 111.064 94.5349C111.325 94.4931 111.554 94.4189 111.753 94.3123C111.954 94.2024 112.12 94.0608 112.251 93.8874C112.381 93.7112 112.47 93.5042 112.518 93.2663L113.52 93.382C113.472 93.7236 113.348 94.0369 113.149 94.3219C112.949 94.6041 112.685 94.8421 112.357 95.0356C112.028 95.2264 111.644 95.3569 111.207 95.4269ZM117.298 94.4689C116.888 94.5345 116.504 94.5168 116.146 94.416C115.787 94.3124 115.486 94.129 115.242 93.8659C114.998 93.6 114.842 93.2566 114.775 92.8359C114.716 92.4656 114.741 92.1537 114.85 91.9004C114.958 91.6442 115.124 91.4306 115.347 91.2597C115.57 91.0888 115.824 90.9475 116.108 90.8358C116.394 90.7209 116.685 90.6197 116.978 90.5324C117.363 90.419 117.675 90.3302 117.915 90.2659C118.158 90.1983 118.33 90.1232 118.432 90.0408C118.536 89.9578 118.576 89.8364 118.55 89.6765L118.545 89.6429C118.479 89.2277 118.313 88.9233 118.049 88.7296C117.788 88.5355 117.429 88.4751 116.971 88.5483C116.497 88.6242 116.142 88.7875 115.906 89.0382C115.67 89.2889 115.516 89.5409 115.445 89.794L114.448 89.6083C114.554 89.1886 114.729 88.8469 114.975 88.5832C115.222 88.3162 115.506 88.1125 115.826 87.9721C116.148 87.8285 116.472 87.7306 116.798 87.6785C117.005 87.6453 117.248 87.6323 117.525 87.6397C117.805 87.6438 118.083 87.7014 118.36 87.8125C118.639 87.9231 118.888 88.1178 119.105 88.3966C119.322 88.6754 119.472 89.0715 119.554 89.5848L120.236 93.8431L119.243 94.0021L119.103 93.1269L119.052 93.135C119.007 93.286 118.919 93.4541 118.788 93.6391C118.656 93.8241 118.469 93.9937 118.226 94.1476C117.983 94.3016 117.674 94.4087 117.298 94.4689ZM117.307 93.5526C117.699 93.4897 118.018 93.3596 118.263 93.1622C118.51 92.9643 118.683 92.7323 118.781 92.4663C118.882 92.1998 118.911 91.9319 118.868 91.6626L118.723 90.7537C118.689 90.8109 118.604 90.872 118.467 90.937C118.333 90.9988 118.176 91.0599 117.996 91.1204C117.818 91.1776 117.644 91.2314 117.474 91.2817C117.306 91.3287 117.17 91.3678 117.065 91.3989C116.813 91.4739 116.58 91.5672 116.368 91.6789C116.158 91.7873 115.996 91.9268 115.883 92.0975C115.771 92.2649 115.736 92.4749 115.776 92.7273C115.831 93.0724 116.001 93.3128 116.284 93.4487C116.57 93.5813 116.911 93.6159 117.307 93.5526ZM122.048 93.5529L121.014 87.0898L121.973 86.9361L122.129 87.9124L122.197 87.9016C122.263 87.5629 122.435 87.2693 122.712 87.0207C122.988 86.7722 123.32 86.6169 123.707 86.5549C123.78 86.5432 123.872 86.53 123.981 86.5153C124.091 86.5006 124.175 86.4916 124.232 86.4882L124.393 87.498C124.358 87.495 124.279 87.4947 124.156 87.4972C124.035 87.4965 123.909 87.5066 123.777 87.5277C123.463 87.578 123.193 87.6889 122.967 87.8602C122.743 88.0284 122.579 88.2389 122.472 88.4918C122.369 88.7415 122.34 89.0122 122.387 89.3039L123.042 93.3939L122.048 93.5529Z" fill="white"/>
<path d="M188.868 71.686L190.708 83.176L189.317 83.3988L187.71 73.3675L187.643 73.3782L185.136 75.69L184.91 74.2762L187.477 71.9088L188.868 71.686ZM197.785 82.2039C196.94 82.3393 196.183 82.2245 195.515 81.8597C194.846 81.4911 194.284 80.8925 193.829 80.0639C193.374 79.2315 193.046 78.1907 192.846 76.9414C192.647 75.6997 192.634 74.6142 192.808 73.6849C192.984 72.7513 193.333 72.005 193.853 71.446C194.377 70.8826 195.058 70.5339 195.895 70.3997C196.733 70.2656 197.487 70.3847 198.156 70.757C198.829 71.1249 199.393 71.7251 199.849 72.5575C200.307 73.3856 200.636 74.4205 200.835 75.6622C201.035 76.9115 201.049 78.0026 200.876 78.9356C200.702 79.8649 200.355 80.609 199.835 81.168C199.314 81.7233 198.631 82.0686 197.785 82.2039ZM197.588 80.9696C198.426 80.8355 199.012 80.3274 199.346 79.4452C199.681 78.563 199.728 77.3739 199.488 75.8778C199.329 74.8829 199.087 74.0528 198.762 73.3875C198.44 72.7217 198.052 72.2372 197.597 71.9341C197.145 71.6305 196.643 71.5229 196.089 71.6116C195.259 71.7445 194.676 72.258 194.339 73.152C194.002 74.0422 193.953 75.2335 194.192 76.7258C194.352 77.7207 194.592 78.5493 194.912 79.2114C195.233 79.8736 195.619 80.3546 196.07 80.6545C196.525 80.9538 197.03 81.0589 197.588 80.9696ZM203.887 81.0659L203.725 80.056L206.853 75.2971C207.22 74.7396 207.519 74.2583 207.749 73.8531C207.979 73.4442 208.138 73.0697 208.226 72.7296C208.316 72.3852 208.333 72.0372 208.277 71.6856C208.212 71.2817 208.059 70.9475 207.817 70.6832C207.579 70.4182 207.281 70.232 206.922 70.1245C206.564 70.0169 206.177 69.9964 205.762 70.0629C205.32 70.1336 204.95 70.2869 204.65 70.5229C204.353 70.7545 204.141 71.0474 204.014 71.4015C203.89 71.7551 203.863 72.1506 203.933 72.5883L202.609 72.8003C202.501 72.127 202.562 71.5112 202.791 70.9528C203.02 70.3944 203.379 69.9303 203.869 69.5604C204.362 69.1899 204.943 68.9511 205.612 68.8439C206.286 68.7361 206.905 68.7827 207.47 68.9837C208.036 69.1847 208.505 69.5028 208.878 69.938C209.25 70.3732 209.484 70.8862 209.579 71.4772C209.646 71.8998 209.636 72.3254 209.547 72.7539C209.462 73.1781 209.271 73.667 208.976 74.2206C208.685 74.7698 208.266 75.4506 207.721 76.2629L205.582 79.4364L205.597 79.5262L210.938 78.671L211.135 79.9053L203.887 81.0659ZM217.068 79.1164C216.41 79.2218 215.796 79.1859 215.227 79.0085C214.657 78.8311 214.177 78.5397 213.786 78.1343C213.395 77.7289 213.138 77.2369 213.015 76.6582L214.361 76.4426C214.497 76.9541 214.801 77.3465 215.275 77.6198C215.751 77.8887 216.283 77.9762 216.871 77.8822C217.342 77.8067 217.743 77.6293 218.074 77.3499C218.409 77.07 218.651 76.7206 218.798 76.3018C218.949 75.8787 218.985 75.4222 218.907 74.9322C218.827 74.431 218.645 74.0017 218.361 73.6443C218.081 73.2826 217.732 73.0182 217.314 72.8511C216.896 72.684 216.441 72.6379 215.951 72.7126C215.599 72.7651 215.246 72.8771 214.894 73.0486C214.541 73.2164 214.259 73.4055 214.047 73.6158L212.72 73.6672L212.51 67.9005L218.48 66.9447L218.677 68.179L213.875 68.948L214.014 72.4013L214.081 72.3905C214.287 72.1658 214.557 71.9632 214.893 71.7829C215.228 71.6026 215.589 71.4816 215.974 71.4199C216.677 71.3073 217.331 71.3753 217.934 71.6239C218.541 71.8682 219.048 72.255 219.455 72.7844C219.866 73.3133 220.131 73.9498 220.25 74.6941C220.367 75.4272 220.308 76.1081 220.071 76.7368C219.837 77.3612 219.46 77.8856 218.942 78.3101C218.422 78.7309 217.798 78.9997 217.068 79.1164Z" fill="white"/>
<path d="M182.261 81.0796L180.779 81.317L180.551 79.8929L182.033 79.6555C182.256 79.6198 182.408 79.4106 182.372 79.1879C182.336 78.9651 182.127 78.8136 181.904 78.8493L180.422 79.0867L180.105 77.1106C180.059 76.8221 179.968 76.6195 179.835 76.5086C179.708 76.403 179.559 76.3684 179.364 76.3995C179.179 76.4293 179.052 76.5076 178.967 76.6463C178.877 76.7932 178.854 77.0144 178.901 77.3036L179.217 79.2798L176.428 79.7264L174.955 78.1228C174.828 77.979 174.708 77.8443 174.593 77.7152C174.489 77.599 174.39 77.5065 174.301 77.44C174.222 77.3812 174.135 77.3396 174.038 77.3126C173.946 77.2873 173.834 77.2851 173.706 77.3057C173.541 77.332 173.4 77.4008 173.272 77.516C173.145 77.63 173.066 77.7585 173.028 77.9091C172.998 78.0515 173.003 78.2612 173.045 78.5263L173.317 80.2243L171.849 80.4594C171.626 80.4951 171.475 80.7044 171.511 80.9271C171.546 81.1498 171.756 81.3012 171.978 81.2655L173.446 81.0305L173.674 82.4548L172.206 82.6899C171.984 82.7255 171.832 82.9348 171.868 83.1576C171.903 83.3802 172.113 83.5316 172.335 83.4959L173.803 83.2609L174.165 85.5171C174.209 85.797 174.302 85.9972 174.44 86.1117C174.571 86.2209 174.721 86.2574 174.912 86.2268C175.096 86.1973 175.226 86.1158 175.321 85.97C175.419 85.8207 175.445 85.6017 175.4 85.3193L175.039 83.0631L177.562 82.659L179.263 84.5333C179.38 84.6565 179.501 84.7804 179.621 84.9017C179.728 85.0105 179.842 85.1035 179.958 85.1777C180.063 85.2449 180.17 85.2892 180.278 85.3095C180.389 85.3304 180.515 85.3299 180.651 85.3082C181.02 85.249 181.38 85.0754 181.246 84.2374L180.908 82.1233L182.39 81.8859C182.613 81.8503 182.765 81.6408 182.729 81.4182C182.694 81.1956 182.484 81.044 182.261 81.0796ZM179.346 80.0857L179.574 81.5099L178.26 81.7203L177.09 80.4469L179.346 80.0857ZM174.42 79.1961L175.094 79.9397L174.552 80.0264L174.42 79.1961ZM174.91 82.2568L174.682 80.8326L175.75 80.6616L176.907 81.9369L174.91 82.2568ZM179.892 83.4977L178.922 82.4413L179.703 82.3162L179.892 83.4977Z" fill="white"/>
<defs>
<radialGradient id="paint0_radial_1376_1106" cx="0" cy="0" r="1" gradientUnits="userSpaceOnUse" gradientTransform="translate(53.5447 70.698) rotate(-8.82998) scale(176.411 554.949)">
<stop stop-color="#572083"/>
<stop offset="1" stop-color="#A75AF2"/>
</radialGradient>
</defs>
</svg>
