<svg width="144" height="100" viewBox="0 0 144 100" fill="none" xmlns="http://www.w3.org/2000/svg">
<path d="M4 92.4749C5.64865 68.341 15.0301 62.7424 40.2611 64.4255C44.0552 64.6786 47.8204 63.4078 50.561 60.772L103.011 10.3279C135.903 -15.7184 159.445 47.0603 115.533 47.0603H94.0902C90.5123 47.0603 87.0926 48.535 84.6366 51.1368L71.621 64.9256" stroke="white" stroke-width="8" stroke-linecap="round"/>
<circle cx="24.7038" cy="92.1574" r="5.00896" fill="white"/>
<path d="M43.6416 88.2577C43.6416 86.3725 44.0806 84.7327 44.9586 83.3382C45.8366 81.9437 47.0504 80.8591 48.5998 80.0844C50.1492 79.3097 51.8924 78.9223 53.8292 78.9223C55.766 78.9223 57.4962 79.3097 59.0198 80.0844C60.5692 80.8591 61.783 81.9437 62.661 83.3382C63.5648 84.7327 64.0167 86.3725 64.0167 88.2577C64.0167 90.117 63.5648 91.7439 62.661 93.1384C61.783 94.5329 60.5692 95.6175 59.0198 96.3922C57.4962 97.1669 55.766 97.5543 53.8292 97.5543C51.8924 97.5543 50.1492 97.1669 48.5998 96.3922C47.0504 95.6175 45.8366 94.5329 44.9586 93.1384C44.0806 91.7439 43.6416 90.117 43.6416 88.2577ZM49.6457 88.2577C49.6457 89.1873 49.8394 89.9879 50.2267 90.6593C50.6141 91.3049 51.1176 91.8085 51.7374 92.17C52.3572 92.5315 53.0544 92.7123 53.8292 92.7123C54.5781 92.7123 55.2624 92.5315 55.8822 92.17C56.5278 91.8085 57.0313 91.3049 57.3929 90.6593C57.7802 89.9879 57.9739 89.1873 57.9739 88.2577C57.9739 87.328 57.7802 86.5275 57.3929 85.856C57.0313 85.1846 56.5278 84.6681 55.8822 84.3066C55.2624 83.9451 54.5781 83.7643 53.8292 83.7643C53.0544 83.7643 52.3572 83.9451 51.7374 84.3066C51.1176 84.6681 50.6141 85.1846 50.2267 85.856C49.8394 86.5275 49.6457 87.328 49.6457 88.2577Z" fill="white"/>
<path d="M69.2013 88.2577C69.2013 86.3725 69.6403 84.7327 70.5183 83.3382C71.3963 81.9437 72.6101 80.8591 74.1595 80.0844C75.7089 79.3097 77.4521 78.9223 79.3889 78.9223C81.3257 78.9223 83.0559 79.3097 84.5795 80.0844C86.1289 80.8591 87.3427 81.9437 88.2207 83.3382C89.1245 84.7327 89.5764 86.3725 89.5764 88.2577C89.5764 90.117 89.1245 91.7439 88.2207 93.1384C87.3427 94.5329 86.1289 95.6175 84.5795 96.3922C83.0559 97.1669 81.3257 97.5543 79.3889 97.5543C77.4521 97.5543 75.7089 97.1669 74.1595 96.3922C72.6101 95.6175 71.3963 94.5329 70.5183 93.1384C69.6403 91.7439 69.2013 90.117 69.2013 88.2577ZM75.2054 88.2577C75.2054 89.1873 75.3991 89.9879 75.7864 90.6593C76.1738 91.3049 76.6773 91.8085 77.2971 92.17C77.9169 92.5315 78.6141 92.7123 79.3889 92.7123C80.1378 92.7123 80.8221 92.5315 81.4419 92.17C82.0875 91.8085 82.591 91.3049 82.9526 90.6593C83.3399 89.9879 83.5336 89.1873 83.5336 88.2577C83.5336 87.328 83.3399 86.5275 82.9526 85.856C82.591 85.1846 82.0875 84.6681 81.4419 84.3066C80.8221 83.9451 80.1378 83.7643 79.3889 83.7643C78.6141 83.7643 77.9169 83.9451 77.2971 84.3066C76.6773 84.6681 76.1738 85.1846 75.7864 85.856C75.3991 86.5275 75.2054 87.328 75.2054 88.2577Z" fill="white"/>
<path d="M93.5967 80.8094C93.2509 80.1437 93.734 79.3484 94.4841 79.3484H95.0707C97.4947 79.3484 99.6806 80.807 100.611 83.0453L103.18 89.2261L105.718 83.0639C106.643 80.8157 108.834 79.3484 111.266 79.3484H111.841C112.59 79.3484 113.073 80.1424 112.729 80.808L104.067 97.5458C103.694 98.2657 102.665 98.2665 102.291 97.5471L93.5967 80.8094Z" fill="white"/>
<path d="M125.738 84.8876H132.517L139.916 95.5985C140.375 96.2619 139.9 97.1669 139.094 97.1669H135.002C133.963 97.1669 132.997 96.6288 132.451 95.7446L125.738 84.8876ZM118.959 71.0518C118.959 70.4995 119.407 70.0518 119.959 70.0518H125.506V96.1669C125.506 96.7192 125.058 97.1669 124.506 97.1669H119.959C119.407 97.1669 118.959 96.7192 118.959 96.1669V71.0518ZM123.065 75.591V70.0518H128.837C131.161 70.0518 133.098 70.4262 134.647 71.1751C136.197 71.924 137.372 72.9699 138.172 74.3127C138.973 75.6297 139.373 77.1663 139.373 78.9223C139.373 80.6525 138.973 82.189 138.172 83.5319C137.372 84.8489 136.197 85.8819 134.647 86.6308C133.098 87.3797 131.161 87.7541 128.837 87.7541H123.065V82.6797H128.372C129.25 82.6797 129.999 82.5506 130.619 82.2923C131.264 82.0083 131.755 81.608 132.091 81.0915C132.426 80.5492 132.594 79.9036 132.594 79.1547C132.594 78.4058 132.426 77.7731 132.091 77.2567C131.755 76.7143 131.264 76.3012 130.619 76.0171C129.999 75.733 129.25 75.591 128.372 75.591H123.065Z" fill="white"/>
</svg>
