<svg width="24" height="24" viewBox="0 0 24 24" fill="none" xmlns="http://www.w3.org/2000/svg">
<path d="M23.76 12.2729C23.76 11.422 23.6836 10.6038 23.5418 9.81836H12.24V14.4602H18.6982C18.42 15.9602 17.5745 17.2311 16.3036 18.082V21.0929H20.1818C22.4509 19.0038 23.76 15.9275 23.76 12.2729Z" fill="#4285F4"/>
<path d="M12.2399 24.0003C15.4799 24.0003 18.1962 22.9257 20.1817 21.093L16.3035 18.0821C15.229 18.8021 13.8544 19.2275 12.2399 19.2275C9.11442 19.2275 6.46896 17.1166 5.52533 14.2803H1.51624V17.3894C3.49078 21.3112 7.54896 24.0003 12.2399 24.0003Z" fill="#34A853"/>
<path d="M5.52545 14.2804C5.28545 13.5604 5.14908 12.7913 5.14908 12.0004C5.14908 11.2095 5.28545 10.4404 5.52545 9.72042V6.61133H1.51635C0.676354 8.28354 0.23925 10.1291 0.239991 12.0004C0.239991 13.9368 0.703628 15.7695 1.51635 17.3895L5.52545 14.2804Z" fill="#FBBC05"/>
<path d="M12.2399 4.77273C14.0017 4.77273 15.5835 5.37818 16.8271 6.56727L20.269 3.12545C18.1908 1.18909 15.4744 0 12.2399 0C7.54896 0 3.49078 2.68909 1.51624 6.61091L5.52533 9.72C6.46896 6.88364 9.11442 4.77273 12.2399 4.77273Z" fill="#EA4335"/>
</svg>
