<svg width="22" height="22" viewBox="0 0 22 22" fill="none" xmlns="http://www.w3.org/2000/svg">
<path d="M20.1629 5.46735L10.6807 14.9661C9.73645 15.912 6.9335 16.3501 6.30731 15.7228C5.68113 15.0956 6.10852 12.2877 7.05277 11.3418L16.545 1.83308C16.779 1.57725 17.0624 1.3716 17.3781 1.22852C17.6937 1.08544 18.035 1.00788 18.3814 1.00057C18.7277 0.99327 19.072 1.05634 19.3933 1.18598C19.7147 1.31563 20.0065 1.50919 20.2511 1.75493C20.4957 2.00066 20.6881 2.29349 20.8166 2.61575C20.9452 2.93803 21.0073 3.28303 20.999 3.62998C20.9908 3.97692 20.9124 4.31863 20.7687 4.63441C20.625 4.95019 20.419 5.23355 20.1629 5.46735Z" stroke="#161616" stroke-width="2" stroke-linecap="round" stroke-linejoin="round"/>
<path d="M9.9455 3.07776H4.97578C3.92133 3.07776 2.91014 3.49736 2.16453 4.24427C1.41894 4.99118 1 6.0042 1 7.06049V17.0173C1 18.0736 1.41894 19.0866 2.16453 19.8335C2.91014 20.5805 3.92133 21 4.97578 21H15.9092C18.1058 21 18.891 19.2078 18.891 17.0173V12.0389" stroke="#161616" stroke-width="2" stroke-linecap="round" stroke-linejoin="round"/>
</svg>
