<svg width="20" height="22" viewBox="0 0 20 22" fill="none" xmlns="http://www.w3.org/2000/svg">
<path d="M9.7016 9.30687C9.61282 9.29419 9.49868 9.29419 9.39723 9.30687C7.16516 9.23078 5.38965 7.40454 5.38965 5.15976C5.38965 2.86428 7.24125 1 9.54941 1C11.8449 1 13.7092 2.86428 13.7092 5.15976C13.6965 7.40454 11.9337 9.23078 9.7016 9.30687Z" stroke="#161616" stroke-width="2" stroke-linecap="round" stroke-linejoin="round"/>
<path d="M18.0957 17.677C15.8382 19.7442 12.8452 20.9997 9.54784 20.9997C6.25043 20.9997 3.25743 19.7442 1 17.677C1.12682 16.4848 1.88775 15.3181 3.24475 14.4049C6.71967 12.0968 12.4013 12.0968 15.8509 14.4049C17.2079 15.3181 17.9688 16.4848 18.0957 17.677Z" stroke="#161616" stroke-width="2" stroke-linecap="round" stroke-linejoin="round"/>
</svg>
