<svg width="18" height="22" viewBox="0 0 18 22" fill="none" xmlns="http://www.w3.org/2000/svg">
<path d="M13.2267 1H4.77335C3.74324 1 3.22819 1 2.81279 1.16261C2.02508 1.47096 1.40665 2.18719 1.1404 3.09946C1 3.58055 1 4.17705 1 5.37005V19.3742C1 20.2324 1.87556 20.6878 2.42942 20.1176C2.75482 19.7826 3.24518 19.7826 3.57058 20.1176L4 20.5597C4.5703 21.1468 5.4297 21.1468 6 20.5597C6.5703 19.9726 7.42969 19.9726 8 20.5597C8.57031 21.1468 9.42969 21.1468 10 20.5597C10.5703 19.9726 11.4297 19.9726 12 20.5597C12.5703 21.1468 13.4297 21.1468 14 20.5597L14.4294 20.1176C14.7548 19.7826 15.2452 19.7826 15.5706 20.1176C16.1244 20.6878 17 20.2324 17 19.3742V5.37005C17 4.17705 17 3.58055 16.8596 3.09946C16.5933 2.18719 15.9749 1.47096 15.1872 1.16261C14.7718 1 14.2568 1 13.2267 1Z" stroke="#161616" stroke-width="2"/>
<path d="M7.66699 10H13.4448" stroke="#161616" stroke-width="2" stroke-linecap="round"/>
<path d="M4.55566 10H5.00011" stroke="#161616" stroke-width="2" stroke-linecap="round"/>
<path d="M4.55566 6.5H5.00011" stroke="#161616" stroke-width="2" stroke-linecap="round"/>
<path d="M4.55566 13.5H5.00011" stroke="#161616" stroke-width="2" stroke-linecap="round"/>
<path d="M7.66699 6.5H13.4448" stroke="#161616" stroke-width="2" stroke-linecap="round"/>
<path d="M7.66699 13.5H13.4448" stroke="#161616" stroke-width="2" stroke-linecap="round"/>
</svg>
