<svg width="20" height="20" viewBox="0 0 20 20" fill="none" xmlns="http://www.w3.org/2000/svg">
<path d="M10 20C4.5 20 0 15.5 0 10C0 4.5 4.5 0 10 0C15.5 0 20 4.5 20 10C20 15.5 15.5 20 10 20ZM7.91667 14.1667C8.41667 16.75 9.33333 18.3333 10 18.3333C10.6667 18.3333 11.5833 16.75 12.0833 14.1667H7.91667ZM13.8333 14.1667C13.5833 15.5833 13.1667 16.9167 12.6667 17.9167C14.5833 17.25 16.25 15.9167 17.25 14.1667H13.8333ZM2.75 14.1667C3.75 15.9167 5.41667 17.25 7.33333 17.9167C6.83333 16.9167 6.41667 15.5833 6.16667 14.1667H2.75ZM14.0833 12.5H18C18.1667 11.75 18.3333 10.8333 18.3333 10C18.3333 9.16667 18.1667 8.25 17.9167 7.5H14C14.1667 8.33333 14.1667 9.16667 14.1667 10C14.1667 10.8333 14.1667 11.6667 14.0833 12.5ZM7.66667 12.5H12.4167C12.5 11.75 12.5833 10.9167 12.5833 10C12.5833 9.08333 12.5 8.25 12.4167 7.5H7.66667C7.58333 8.25 7.5 9.08333 7.5 10C7.5 10.9167 7.58333 11.75 7.66667 12.5ZM2.08333 12.5H6C5.91667 11.6667 5.91667 10.8333 5.91667 10C5.91667 9.16667 5.91667 8.33333 6 7.5H2.08333C1.83333 8.25 1.66667 9.16667 1.66667 10C1.66667 10.8333 1.83333 11.75 2.08333 12.5ZM13.8333 5.83333H17.25C16.25 4.08333 14.5833 2.75 12.6667 2.08333C13.1667 3.08333 13.5833 4.41667 13.8333 5.83333ZM7.91667 5.83333H12.1667C11.6667 3.25 10.75 1.66667 10.0833 1.66667C9.41667 1.66667 8.41667 3.25 7.91667 5.83333ZM2.75 5.83333H6.16667C6.41667 4.41667 6.83333 3.08333 7.33333 2.08333C5.41667 2.75 3.83333 4.08333 2.75 5.83333Z" fill="#161616"/>
</svg>
