<svg width="23" height="20" viewBox="0 0 23 20" fill="none" xmlns="http://www.w3.org/2000/svg">
<path d="M23 13.7586H22.9799L19.4351 5.63692C19.7723 5.7583 20.0578 5.86303 20.279 5.94579L20.6942 4.84867C19.5144 4.40656 16.6372 3.38808 13.4889 2.4652C13.4889 1.98106 13.2898 1.5403 12.9713 1.22298C12.6535 0.904935 12.2097 0.708319 11.7238 0.708319C11.2378 0.708319 10.7931 0.904979 10.4756 1.22298C10.3708 1.32672 10.2802 1.44403 10.205 1.57221C7.08692 0.786911 4.17333 0.214295 2.95339 0L2.7489 1.15445C3.00716 1.19988 3.34713 1.26258 3.7521 1.3406L0.0203945 9.89014H0C0.00269531 9.89896 0.00579492 9.90778 0.00849023 9.9166L0.000988281 9.93387L0.0163516 9.94063C0.592115 11.7586 2.29632 13.0771 4.31084 13.0771C6.32567 13.0771 8.02992 11.7586 8.60532 9.94063L8.621 9.93387L8.6135 9.9166C8.61624 9.90778 8.6193 9.89896 8.62204 9.89014H8.6016L4.97609 1.58403C6.36754 1.86917 8.14213 2.25976 9.97769 2.72286C10.0342 3.10531 10.2142 3.45011 10.4755 3.70876C10.6293 3.86304 10.8138 3.98813 11.0176 4.07697V16.4465C10.221 16.4465 9.60066 16.4465 9.60066 16.4465C9.60066 16.4465 9.26105 18.5621 7.73245 18.8998V20H15.7147V18.8998C14.1865 18.5621 13.8465 16.4465 13.8465 16.4465C13.8465 16.4465 13.2262 16.4465 12.4295 16.4465V4.07697C12.633 3.98813 12.8171 3.86304 12.9713 3.70876C13.0145 3.66535 13.057 3.61996 13.0958 3.5718C14.9705 4.1207 16.759 4.70724 18.1417 5.18291L14.3984 13.7586H14.3781C14.3807 13.7678 14.3838 13.7763 14.3869 13.7851L14.3791 13.8024L14.3944 13.8091C14.9702 15.6271 16.6743 16.9456 18.6892 16.9456C20.7037 16.9456 22.4079 15.6274 22.9836 13.8095L22.999 13.8024L22.9915 13.7851C22.9942 13.7763 22.9976 13.7678 23 13.7586ZM7.83181 9.89014H0.790176L4.31115 1.82374L7.83181 9.89014ZM12.3887 3.12903C12.3192 3.19786 12.2393 3.25752 12.1508 3.30094C12.0239 3.36771 11.8792 3.40437 11.7237 3.40437C11.4627 3.40437 11.2296 3.29991 11.0578 3.12903C11.0098 3.07953 10.9659 3.02698 10.9285 2.96835C10.8356 2.82392 10.7825 2.65304 10.7825 2.46658C10.7825 2.20619 10.8873 1.97399 11.0578 1.80275C11.0616 1.79935 11.0649 1.79599 11.0687 1.79358C11.2392 1.62914 11.4672 1.52884 11.7238 1.52884C11.9851 1.52884 12.2182 1.63321 12.3887 1.80275C12.5027 1.91666 12.5888 2.0584 12.6324 2.21774C12.6535 2.29642 12.6654 2.3798 12.6654 2.46658C12.6653 2.72693 12.5605 2.95882 12.3887 3.12903ZM15.1682 13.7586L18.6892 5.69215L22.2098 13.7586H15.1682Z" fill="#161616"/>
</svg>
