<svg width="17" height="22" viewBox="0 0 17 22" fill="none" xmlns="http://www.w3.org/2000/svg">
<path d="M5.28571 1V3.22222M8.5 1V3.22222M11.7143 1V3.22222M9.57143 7.66667H5.28571M11.7143 12.1111H5.28571M4.42857 21H12.5714C13.7715 21 14.3716 21 14.83 20.7578C15.2332 20.5448 15.561 20.2048 15.7664 19.7867C16 19.3113 16 18.689 16 17.4444V5.66667C16 4.42211 16 3.79982 15.7664 3.32447C15.561 2.90632 15.2332 2.56637 14.83 2.35332C14.3716 2.11111 13.7715 2.11111 12.5714 2.11111H4.42857C3.22846 2.11111 2.6284 2.11111 2.17002 2.35332C1.76681 2.56637 1.439 2.90632 1.23356 3.32447C1 3.79982 1 4.4221 1 5.66667V17.4444C1 18.689 1 19.3113 1.23356 19.7867C1.439 20.2048 1.76681 20.5448 2.17002 20.7578C2.6284 21 3.22845 21 4.42857 21Z" stroke="#161616" stroke-width="2" stroke-linecap="round" stroke-linejoin="round"/>
</svg>
