<svg width="23" height="22" viewBox="0 0 23 22" fill="none" xmlns="http://www.w3.org/2000/svg">
<path d="M6.16338 11.5712L1.3939 16.3407C1.14901 16.5856 1.04827 16.9397 1.12759 17.2768L1.41641 18.5043C1.70549 19.7329 2.73264 20.6492 3.98614 20.7967L5.23311 20.9434C5.53706 20.9791 5.84065 20.8737 6.05705 20.6573L10.6533 16.0611C19.6331 18.5308 24.123 8.87749 19.1841 3.26491C14.2452 -1.89832 3.91843 2.14232 6.16338 11.5712Z" stroke="#161616" stroke-width="2"/>
<path d="M6.42195 16.4765C6.03143 16.086 5.39826 16.086 5.00774 16.4765C4.61721 16.867 4.61721 17.5002 5.00774 17.8907L6.42195 16.4765ZM5.00774 17.8907L6.80369 19.6867L8.21791 18.2724L6.42195 16.4765L5.00774 17.8907Z" fill="#161616"/>
<circle cx="13.5718" cy="8.87742" r="2.91843" stroke="#161616" stroke-width="2"/>
</svg>
