<svg width="22" height="22" viewBox="0 0 22 22" fill="none" xmlns="http://www.w3.org/2000/svg">
<path d="M6.04444 18.778H2.11111C1.81643 18.778 1.53381 18.6609 1.32544 18.4526C1.11706 18.2442 1 17.9616 1 17.6669V3.22244C1 2.92775 1.11706 2.64514 1.32544 2.43677C1.53381 2.22839 1.81643 2.11133 2.11111 2.11133H19.8889C20.1836 2.11133 20.4662 2.22839 20.6746 2.43677C20.8829 2.64514 21 2.92775 21 3.22244V17.6669C21 17.9616 20.8829 18.2442 20.6746 18.4526C20.4662 18.6609 20.1836 18.778 19.8889 18.778H15.9556" stroke="#161616" stroke-width="2" stroke-linecap="round" stroke-linejoin="round"/>
<path d="M1 7.66699H21M11 7.66699C9.68146 7.66699 8.39253 8.05799 7.2962 8.79053C6.19987 9.52307 5.34539 10.5643 4.8408 11.7824C4.33622 13.0006 4.2042 14.3411 4.46143 15.6343C4.71867 16.9275 5.35361 18.1154 6.28596 19.0477C7.21831 19.9801 8.40619 20.615 9.6994 20.8722C10.9926 21.1295 12.333 20.9974 13.5512 20.4929C14.7694 19.9883 15.8106 19.1338 16.5431 18.0375C17.2757 16.9411 17.6667 15.6522 17.6667 14.3337C17.6667 12.5655 16.9643 10.8699 15.714 9.61961C14.4638 8.36937 12.7681 7.66699 11 7.66699Z" stroke="#161616" stroke-width="2" stroke-linecap="round" stroke-linejoin="round"/>
<path d="M15.4446 1V4.33333M6.55566 1V4.33333M8.77789 16.5556V12.1111" stroke="#161616" stroke-width="2" stroke-linecap="round" stroke-linejoin="round"/>
<path d="M11 12.1113H13.2222L12.1111 16.5558" stroke="#161616" stroke-width="2" stroke-linecap="round" stroke-linejoin="round"/>
</svg>
