<svg width="31" height="22" viewBox="0 0 31 22" fill="none" xmlns="http://www.w3.org/2000/svg">
<path d="M9.7 18.1429H21.3M9.7 18.1429C9.7 19.7209 8.40163 21 6.8 21C5.19837 21 3.9 19.7209 3.9 18.1429M9.7 18.1429C9.7 16.5649 8.40163 15.2857 6.8 15.2857C5.19837 15.2857 3.9 16.5649 3.9 18.1429M21.3 18.1429C21.3 19.7209 22.5983 21 24.2 21C25.8017 21 27.1 19.7209 27.1 18.1429M21.3 18.1429C21.3 16.5649 22.5983 15.2857 24.2 15.2857C25.8017 15.2857 27.1 16.5649 27.1 18.1429M3.9 18.1429H3.32C2.50793 18.1429 2.10188 18.1429 1.79171 17.9871C1.51888 17.8501 1.29706 17.6317 1.15804 17.3629C1 17.0573 1 16.6573 1 15.8571V14.1429C1 12.5427 1 11.7426 1.31609 11.1314C1.59411 10.5939 2.03775 10.1567 2.58343 9.88286C3.20377 9.57143 4.01585 9.57143 5.64 9.57143H23.04C24.1176 9.57143 24.6565 9.57143 25.1073 9.64171C27.5891 10.029 29.5356 11.9467 29.9287 14.3919C30 14.836 30 15.3669 30 16.4286C30 16.694 30 16.8267 29.9822 16.9377C29.8839 17.549 29.3972 18.0284 28.7768 18.1253C28.6641 18.1429 28.5294 18.1429 28.26 18.1429H27.1M12.6 1V9.57143M3.9 9.57143L4.3807 6.72983C4.72506 4.69419 4.89725 3.67636 5.41279 2.91257C5.86723 2.23929 6.50572 1.70639 7.25452 1.37544C8.10399 1 9.15132 1 11.246 1H16.1251C17.4869 1 18.1679 1 18.786 1.18493C19.3332 1.34866 19.8422 1.61706 20.284 1.9748C20.7831 2.3789 21.1608 2.9371 21.9162 4.05349L25.65 9.57143" stroke="#161616" stroke-width="2" stroke-linecap="round" stroke-linejoin="round"/>
</svg>
