<svg width="25" height="22" viewBox="0 0 25 22" fill="none" xmlns="http://www.w3.org/2000/svg">
<path d="M12.5 13.5006L7.38889 13.5M24 11V10C24 8.59987 24 7.8998 23.7214 7.36503C23.4765 6.89461 23.0855 6.51216 22.6047 6.27249C22.058 6 21.3423 6 19.9111 6H1M24 11V16M24 11H21.4444C20.033 11 18.8889 12.1193 18.8889 13.5C18.8889 14.8807 20.033 16 21.4444 16H24M1 6V17C1 18.4001 1 19.1003 1.27854 19.635C1.52354 20.1054 1.91449 20.4879 2.39536 20.7275C2.94202 21 3.65765 21 5.08889 21H19.9111C21.3423 21 22.058 21 22.6047 20.7275C23.0855 20.4879 23.4765 20.1054 23.7214 19.635C24 19.1003 24 18.4001 24 17V16M1 6V5C1 3.59987 1 2.8998 1.27854 2.36503C1.52354 1.89461 1.91449 1.51216 2.39536 1.27249C2.94202 1 3.65764 1 5.08889 1H16.0778C17.509 1 18.2247 1 18.7713 1.27249C19.2522 1.51216 19.6432 1.89461 19.8881 2.36503C20.1667 2.8998 20.1667 3.59987 20.1667 5V6" stroke="#161616" stroke-width="2" stroke-linecap="round" stroke-linejoin="round"/>
</svg>
