<svg width="32" height="36" viewBox="0 0 32 36" fill="none" xmlns="http://www.w3.org/2000/svg">
<g clip-path="url(#clip0_1420_3543)">
<path d="M30.9976 12.2824C28.3759 13.7647 26.7566 16.3059 26.7566 19.1294C26.7566 22.3059 28.8386 25.2 32 26.4C31.3831 28.2353 30.4578 29.9294 29.3012 31.4824C27.6048 33.6706 25.8313 35.9294 23.2096 35.9294C20.588 35.9294 19.8169 34.5177 16.7325 34.5177C13.7253 34.5177 12.6458 36 10.1783 36C7.71084 36 6.01446 33.9529 4.08675 31.4118C1.54217 27.8824 0.0771084 23.7882 0 19.4824C0 12.4941 4.93494 8.75294 9.86988 8.75294C12.4916 8.75294 14.6506 10.3059 16.2699 10.3059C17.812 10.3059 20.2795 8.68235 23.2096 8.68235C26.294 8.61176 29.2241 9.95294 30.9976 12.2824ZM21.8217 5.71765C23.1325 4.30588 23.8265 2.54118 23.9036 0.705882C23.9036 0.494118 23.9036 0.211765 23.8265 0C21.5904 0.211765 19.5084 1.2 18.0434 2.75294C16.7325 4.09412 15.9614 5.78824 15.8843 7.62353C15.8843 7.83529 15.8843 8.04706 15.9614 8.25882C16.1157 8.25882 16.347 8.32941 16.5012 8.32941C18.5831 8.18824 20.5108 7.2 21.8217 5.71765Z" fill="black"/>
</g>
<defs>
<clipPath id="clip0_1420_3543">
<rect width="32" height="36" fill="white"/>
</clipPath>
</defs>
</svg>
