<svg width="32" height="32" viewBox="0 0 32 32" fill="none" xmlns="http://www.w3.org/2000/svg">
<path d="M30.08 16.3335C30.08 15.2935 29.9867 14.2935 29.8133 13.3335H16V19.0068H23.8933C23.5533 20.8402 22.52 22.3935 20.9667 23.4335V27.1135H25.7067C28.48 24.5602 30.08 20.8002 30.08 16.3335Z" fill="#4285F4"/>
<path d="M16 30.6666C19.96 30.6666 23.28 29.3533 25.7067 27.1133L20.9667 23.4333C19.6533 24.3133 17.9733 24.8333 16 24.8333C12.18 24.8333 8.94667 22.2533 7.79333 18.7866H2.89333V22.5866C5.30667 27.38 10.2667 30.6666 16 30.6666Z" fill="#34A853"/>
<path d="M7.79333 18.7869C7.5 17.9069 7.33333 16.9669 7.33333 16.0002C7.33333 15.0336 7.5 14.0936 7.79333 13.2136V9.41357H2.89333C1.86667 11.4574 1.33243 13.7131 1.33333 16.0002C1.33333 18.3669 1.9 20.6069 2.89333 22.5869L7.79333 18.7869Z" fill="#FBBC05"/>
<path d="M16 7.16683C18.1533 7.16683 20.0867 7.90683 21.6067 9.36016L25.8133 5.1535C23.2733 2.78683 19.9533 1.3335 16 1.3335C10.2667 1.3335 5.30667 4.62016 2.89333 9.4135L7.79333 13.2135C8.94667 9.74683 12.18 7.16683 16 7.16683Z" fill="#EA4335"/>
</svg>
