<svg width="32" height="19" viewBox="0 0 32 19" fill="none" xmlns="http://www.w3.org/2000/svg">
<g clip-path="url(#clip0_1420_3546)">
<path d="M20.3262 2.03174H11.6738V16.9679H20.3262V2.03174Z" fill="#FF5F00"/>
<path d="M12.223 9.49975C12.223 6.59698 13.6239 3.82614 15.9861 2.0317C11.7011 -1.21413 5.49342 -0.501634 2.11488 3.64142C-1.26366 7.75809 -0.522032 13.722 3.79041 16.9678C7.3887 19.6859 12.4153 19.6859 16.0136 16.9678C13.6239 15.1734 12.223 12.4025 12.223 9.49975Z" fill="#EB001B"/>
<path d="M32 9.49975C32 14.7511 27.5777 18.9998 22.1116 18.9998C19.8867 18.9998 17.7442 18.2873 16.0137 16.9678C20.2987 13.722 21.0403 7.75809 17.6618 3.61503C17.1674 3.03448 16.618 2.48031 16.0137 2.0317C20.2987 -1.21413 26.5339 -0.501634 29.885 3.64142C31.2584 5.30392 32 7.36225 32 9.49975Z" fill="#F79E1B"/>
<path d="M31.0661 15.3846V15.0679H31.2034V15.0151H30.8738V15.0679H31.0112V15.3846H31.0661ZM31.6979 15.3846V15.0151H31.588L31.4781 15.279L31.3682 15.0151H31.2584V15.3846H31.3408V15.0943L31.4506 15.3318H31.533L31.6429 15.0943V15.3846H31.6979Z" fill="#F79E1B"/>
</g>
<defs>
<clipPath id="clip0_1420_3546">
<rect width="32" height="19" fill="white"/>
</clipPath>
</defs>
</svg>
