<svg width="22" height="22" viewBox="0 0 22 22" fill="none" xmlns="http://www.w3.org/2000/svg">
<path d="M8.547 2.64522L9.35825 4.09888C10.0904 5.41074 9.7965 7.13166 8.64337 8.28477C8.64337 8.28477 7.24485 9.68352 9.78062 12.2194C12.3156 14.7544 13.7152 13.3567 13.7152 13.3567C14.8684 12.2035 16.5892 11.9097 17.9011 12.6418L19.3547 13.453C21.3357 14.5585 21.5696 17.3365 19.8285 19.0778C18.7822 20.124 17.5005 20.9382 16.0836 20.9918C13.6985 21.0823 9.64787 20.4787 5.58462 16.4154C1.52141 12.3522 0.917765 8.30154 1.00819 5.91637C1.0619 4.49951 1.876 3.21779 2.92226 2.17154C4.66345 0.430349 7.44146 0.6643 8.547 2.64522Z" stroke="#161616" stroke-width="2" stroke-linecap="round"/>
</svg>
