<svg width="39" height="24" viewBox="0 0 39 24" fill="none" xmlns="http://www.w3.org/2000/svg">
<mask id="path-1-inside-1_1456_2470" fill="white">
<rect width="38.9997" height="24" rx="1"/>
</mask>
<rect width="38.9997" height="24" rx="1" fill="#D6D3FF" stroke="#0D880A" stroke-width="4" mask="url(#path-1-inside-1_1456_2470)"/>
<ellipse cx="1.75499" cy="2.20408" rx="1.75499" ry="2.20408" fill="#0D880A"/>
<ellipse cx="1.75499" cy="21.7959" rx="1.75499" ry="2.20408" fill="#0D880A"/>
<ellipse cx="7.79988" cy="12.2448" rx="1.16999" ry="1.46939" fill="#161616"/>
<ellipse cx="30.8096" cy="12.2448" rx="1.16999" ry="1.46939" fill="#161616"/>
<ellipse cx="19.3054" cy="11.9995" rx="5.65496" ry="7.10204" fill="#0D880A"/>
<ellipse cx="37.2452" cy="21.7959" rx="1.75499" ry="2.20408" fill="#0D880A"/>
<ellipse cx="37.2452" cy="2.20408" rx="1.75499" ry="2.20408" fill="#0D880A"/>
<path d="M22.374 12.6863H22.0184C21.7149 12.6863 21.4689 12.4403 21.4689 12.1369C21.4689 11.8334 21.7149 11.5874 22.0184 11.5874H22.374C22.51 11.5874 22.6202 11.4483 22.6202 11.2765C22.6202 11.1046 22.51 10.9654 22.374 10.9654C21.8741 10.9654 21.4689 10.5602 21.4689 10.0604V9.4406C21.4689 9.21802 21.4341 9.05465 21.3655 8.95513C21.3003 8.86046 21.2145 8.81641 21.0958 8.81641C20.9824 8.81641 20.8999 8.86016 20.836 8.95424C20.7681 9.05386 20.7337 9.21753 20.7337 9.4407V9.96557C20.7337 10.5179 20.286 10.9656 19.7337 10.9656H19.6368C19.2646 10.9656 18.9232 10.7589 18.7507 10.4291L18.3074 9.58172C18.2455 9.45822 18.1872 9.34253 18.1307 9.23149C18.0797 9.13148 18.0301 9.05006 17.9832 8.98926C17.9416 8.93543 17.8943 8.89378 17.8389 8.86176C17.7867 8.83163 17.7203 8.81651 17.6417 8.81651C17.5415 8.81651 17.4505 8.85119 17.3634 8.92246C17.2772 8.99294 17.2176 9.08009 17.1812 9.18889C17.1493 9.29228 17.1324 9.45072 17.1324 9.65524V10.0694C17.1324 10.5643 16.7312 10.9655 16.2364 10.9655C16.1004 10.9655 15.9902 11.1047 15.9902 11.2765C15.9902 11.4484 16.1004 11.5875 16.2364 11.5875H16.5829C16.8864 11.5875 17.1324 11.8335 17.1324 12.137C17.1324 12.4405 16.8864 12.6865 16.5829 12.6865H16.2364C16.1004 12.6865 15.9902 12.8257 15.9902 12.9976C15.9902 13.1694 16.1004 13.3085 16.2364 13.3085C16.7312 13.3085 17.1324 13.7097 17.1324 14.2045V15.0494C17.1324 15.2654 17.1683 15.4271 17.2395 15.5299C17.3072 15.6279 17.393 15.6733 17.5095 15.6733C17.6219 15.6733 17.707 15.6277 17.7776 15.5295C17.8499 15.4289 17.8865 15.2673 17.8865 15.0494V14.2658C17.8865 13.7371 18.3151 13.3085 18.8438 13.3085C19.2019 13.3085 19.5302 13.5084 19.6944 13.8267L20.2606 14.9235C20.3186 15.0302 20.3784 15.138 20.4381 15.2437C20.492 15.3385 20.5507 15.4221 20.6127 15.492C20.6685 15.5551 20.7284 15.6014 20.7906 15.6296C20.8546 15.6588 20.9295 15.6735 21.0126 15.6735C21.238 15.6735 21.4689 15.5863 21.4689 14.9397V14.2135C21.4689 13.7137 21.8741 13.3085 22.3739 13.3085C22.5099 13.3085 22.6202 13.1692 22.6202 12.9974C22.6202 12.8256 22.51 12.6863 22.374 12.6863ZM20.2144 11.5874C20.5012 11.5874 20.7337 11.8199 20.7337 12.1067V12.1867C20.7337 12.4626 20.51 12.6863 20.2341 12.6863C20.0481 12.6863 19.8775 12.583 19.7913 12.4183L19.7543 12.3474C19.5734 12.0016 19.8242 11.5874 20.2144 11.5874ZM17.8865 10.8402C17.8865 10.7089 18.0627 10.6661 18.1229 10.7827C18.166 10.8661 18.1055 10.9654 18.0117 10.9654C17.9425 10.9654 17.8865 10.9093 17.8865 10.8402ZM18.348 12.6863C18.0931 12.6863 17.8865 12.4797 17.8865 12.2248V11.9926C17.8865 11.7688 18.0679 11.5874 18.2916 11.5874C18.4432 11.5874 18.5821 11.672 18.6517 11.8067L18.7582 12.013C18.9168 12.3202 18.6938 12.6863 18.348 12.6863ZM20.7337 13.4883C20.7337 13.6763 20.4816 13.7382 20.3945 13.5716C20.332 13.4519 20.4188 13.3085 20.5539 13.3085C20.6532 13.3085 20.7337 13.389 20.7337 13.4883Z" fill="white"/>
</svg>
