<svg width="18" height="18" viewBox="0 0 18 18" fill="none" xmlns="http://www.w3.org/2000/svg">
<path d="M9 17C13.4182 17 17 13.4182 17 9C17 4.58172 13.4182 1 9 1C4.58172 1 1 4.58172 1 9C1 10.2798 1.3005 11.4893 1.83477 12.562C1.97675 12.847 2.02401 13.1729 1.9417 13.4805L1.46521 15.2614C1.25836 16.0344 1.96561 16.7416 2.73868 16.5348L4.51951 16.0583C4.82714 15.976 5.15297 16.0233 5.43802 16.1652C6.5107 16.6995 7.72024 17 9 17Z" stroke="#161616" stroke-width="2"/>
<path d="M5.80005 7.7998H12.2" stroke="#161616" stroke-width="2" stroke-linecap="round"/>
<path d="M5.80005 10.5996H10.2" stroke="#161616" stroke-width="2" stroke-linecap="round"/>
</svg>
