<svg width="16" height="16" viewBox="0 0 16 16" fill="none" xmlns="http://www.w3.org/2000/svg">
<circle cx="7.06667" cy="7.06667" r="6.06667" stroke="#161616"/>
<path d="M12.266 3.86352C13.0272 4.36393 13.6659 5.02933 14.1348 5.81036C14.6036 6.59138 14.8906 7.46796 14.9744 8.37506C15.0581 9.28215 14.9365 10.1965 14.6186 11.0501C14.3007 11.9038 13.7946 12.6749 13.1379 13.3063C12.4812 13.9376 11.6908 14.4129 10.8253 14.697C9.95973 14.9811 9.04134 15.0666 8.13825 14.9472C7.23516 14.8278 6.37055 14.5066 5.60858 14.0073C4.84662 13.5081 4.20687 12.8437 3.73681 12.0633" stroke="#161616"/>
<path d="M7.86395 9.10751L7.91615 9.07701C7.87439 9.00554 7.83254 8.9327 7.79203 8.86056L7.20556 7.76204L7.18848 7.73006H7.15223H6.06792H6.00746V7.79051V8.97531C6.00746 9.11921 5.982 9.21321 5.94278 9.26596C5.9038 9.31837 5.86142 9.33948 5.80256 9.33948C5.76937 9.33948 5.74356 9.33327 5.72227 9.32234C5.70099 9.31141 5.68097 9.29409 5.66173 9.26715L5.66168 9.26709C5.62256 9.21246 5.59762 9.11775 5.59762 8.9753V7.79051V7.73006H5.53717H4.90646C4.85487 7.73006 4.79366 7.67432 4.79366 7.57894C4.79366 7.48346 4.8549 7.42769 4.90646 7.42769H5.53717H5.59762V7.36724V6.61929V6.55884H5.53717H4.90646C4.85488 6.55884 4.79366 6.50309 4.79366 6.40766C4.79366 6.31221 4.8549 6.25642 4.90645 6.25641C4.90646 6.25641 4.90646 6.25641 4.90646 6.25641H5.53716H5.59761V6.19596V5.30427C5.59761 5.16751 5.60943 5.06739 5.6289 5.00597C5.65082 4.94301 5.68595 4.89356 5.73726 4.85299L5.73727 4.85298C5.78915 4.81194 5.84023 4.79392 5.89564 4.79392C5.94389 4.79392 5.97971 4.80295 6.00502 4.81706C6.0369 4.8349 6.06423 4.85805 6.08873 4.88875L6.08873 4.88875C6.11861 4.92617 6.15156 4.97805 6.18633 5.04406L6.18633 5.04406C6.22606 5.11947 6.26699 5.19807 6.31057 5.28208L6.31057 5.28208L6.31106 5.283L6.82056 6.22479L6.83771 6.25648H6.87373H8.07202H8.13247V6.19603V5.15826C8.13247 5.00988 8.1567 4.91415 8.19342 4.86201L8.19344 4.86197C8.21132 4.83656 8.23001 4.82032 8.24999 4.81008C8.27003 4.7998 8.29468 4.79385 8.32687 4.79385C8.39224 4.79385 8.43368 4.81544 8.46749 4.86289L8.46751 4.86291C8.50461 4.91493 8.52909 5.01032 8.52909 5.1582V6.1959V6.25635H8.58954H9.22657C9.27816 6.25635 9.33943 6.31216 9.33943 6.4076C9.33943 6.50301 9.27818 6.55879 9.22657 6.55879H8.58954H8.52909V6.61924V7.3671V7.42755H8.58954H9.22657C9.27815 7.42755 9.33942 7.4834 9.33941 7.5788V7.57881C9.33941 7.67421 9.27813 7.73006 9.22655 7.73006H8.58952H8.52907V7.79051V8.90063C8.52907 9.11588 8.48881 9.22257 8.44272 9.27582C8.39928 9.32599 8.34087 9.33961 8.26831 9.33961C8.21664 9.33961 8.1725 9.33072 8.13641 9.31485L8.13636 9.31483C8.10175 9.29964 8.06627 9.27377 8.03147 9.2357L8.03138 9.2356C7.99106 9.1917 7.95217 9.13837 7.91609 9.0769L7.86395 9.10751ZM7.86395 9.10751C7.90186 9.17207 7.94322 9.22897 7.98685 9.27649M7.86395 9.10751C7.82194 9.0356 7.77981 8.96227 7.73901 8.88961L7.98685 9.27649M7.98685 9.27649C8.02615 9.31947 8.06828 9.35097 8.11207 9.37019L7.98685 9.27649ZM6.36423 5.25424C6.32063 5.17019 6.27963 5.09146 6.23981 5.01588L9.39986 7.57881C9.39988 7.46189 9.32229 7.3671 9.22657 7.3671H8.64999H8.58954V7.30665V6.67969V6.61924H8.64999H9.22657C9.32229 6.61924 9.39988 6.52455 9.39988 6.4076C9.39988 6.29064 9.32229 6.1959 9.22657 6.1959H8.64999H8.58954V6.13545V5.1582C8.58954 5.00672 8.56503 4.89554 8.51673 4.82781C8.47082 4.76338 8.41046 4.7334 8.32687 4.7334C8.24711 4.7334 8.18902 4.76317 8.144 4.8272C8.09625 4.895 8.07202 5.00638 8.07202 5.15826V6.13557V6.19603H8.01157H6.87373L6.36423 5.25424ZM8.13246 6.61923V6.55877H8.07201H7.10285H7.00142L7.04968 6.64799L7.45424 7.39585L7.47138 7.42754H7.50741H8.07201H8.13246V7.36709V6.61923ZM6.12125 5.73143L6.00747 5.7599V6.1959V6.25635H6.06793H6.30076H6.40157L6.35408 6.16742L6.12125 5.73143ZM6.00747 7.3671V7.42755H6.06793H6.92618H7.02699L6.9795 7.33863L6.58017 6.59076L6.56309 6.55879H6.52684H6.06793H6.00747V6.61924V7.3671ZM8.01884 8.43971L8.13246 8.41095V7.79051V7.73006H8.07201H7.73646H7.63504L7.68329 7.81927L8.01884 8.43971Z" fill="#161616" stroke="#161616" stroke-width="0.120904"/>
</svg>
