<svg width="22" height="20" viewBox="0 0 22 20" fill="none" xmlns="http://www.w3.org/2000/svg">
<path d="M2.52635 7.83208e-06C1.85516 0.00331668 1.2126 0.268219 0.739175 0.736792C0.265754 1.20537 -8.40931e-06 1.83948 1.9957e-10 2.50049C0.00134686 3.08132 0.207975 3.64357 0.584408 4.09071C0.960842 4.53785 1.4836 4.84198 2.06293 4.9509V15.0462C1.48278 15.1553 0.959384 15.4601 0.582853 15.9083C0.206323 16.3564 0.000211343 16.9198 1.9957e-10 17.5014C0.000518339 18.1643 0.268255 18.7998 0.744365 19.2683C1.22048 19.7368 1.866 20 2.53906 20C3.21179 19.9995 3.85681 19.7361 4.3325 19.2676C4.80819 18.7992 5.07565 18.1639 5.07617 17.5014C5.07607 16.9201 4.8703 16.357 4.49426 15.9089C4.11822 15.4608 3.59539 15.1558 3.01569 15.0462V10.4679H10.5219V15.0462C9.94176 15.1553 9.41837 15.4601 9.04184 15.9083C8.66531 16.3564 8.45919 16.9198 8.45898 17.5014C8.45924 17.8299 8.5252 18.1551 8.6531 18.4584C8.781 18.7618 8.96833 19.0373 9.20438 19.2693C9.44044 19.5014 9.72061 19.6853 10.0289 19.8107C10.3371 19.936 10.6675 20.0004 11.001 20C11.6737 19.9995 12.3187 19.7361 12.7944 19.2676C13.2701 18.7992 13.5376 18.1639 13.5381 17.5014C13.5379 16.9198 13.3318 16.3564 12.9552 15.9083C12.5787 15.4601 12.0553 15.1553 11.4752 15.0462V10.4679H18.9371C19.4894 10.4679 19.9371 10.0202 19.9371 9.46794V4.9509C20.5164 4.84198 21.0392 4.53785 21.4156 4.09071C21.792 3.64357 21.9987 3.08132 22 2.50049C22 1.83765 21.7328 1.20194 21.257 0.733062C20.7813 0.264186 20.136 0.000518294 19.4629 7.83208e-06C19.4596 1.65293e-06 19.4564 1.65293e-06 19.4531 7.83208e-06C18.7817 0.00306292 18.1389 0.267854 17.6653 0.736454C17.1917 1.20505 16.9258 1.83932 16.9258 2.50049C16.9271 3.08132 17.1338 3.64357 17.5102 4.09071C17.8866 4.53785 18.4094 4.84198 18.9887 4.9509V9.52918H11.4752V4.9509C12.0545 4.84198 12.5772 4.53785 12.9537 4.09071C13.3301 3.64357 13.5367 3.08132 13.5381 2.50049C13.5381 1.83765 13.2708 1.20194 12.7951 0.733062C12.3194 0.264186 11.674 0.000518294 11.001 7.83208e-06C10.9977 1.65293e-06 10.9945 1.65293e-06 10.9912 7.83208e-06C10.319 0.00179221 9.67492 0.266022 9.20024 0.73476C8.72555 1.2035 8.45898 1.83849 8.45898 2.50049C8.46033 3.08132 8.66696 3.64357 9.04339 4.09071C9.41982 4.53785 9.94258 4.84198 10.5219 4.9509V9.52918H3.01569V4.9509C3.59457 4.84149 4.11676 4.53714 4.49271 4.09004C4.86865 3.64295 5.07493 3.08097 5.07617 2.50049C5.07617 1.83765 4.80893 1.20194 4.33319 0.733062C3.85744 0.264186 3.21213 0.000518294 2.53906 7.83208e-06C2.53483 -2.61069e-06 2.53059 -2.61069e-06 2.52635 7.83208e-06Z" fill="#161616"/>
</svg>
