<svg width="11" height="15" viewBox="0 0 11 15" fill="none" xmlns="http://www.w3.org/2000/svg">
<path d="M2.125 4.65788V10.3421H2C1.44772 10.3421 1 10.7898 1 11.3421V11.7631C1 12.2368 1.25 13 2 13H8.6875C9.4375 13 10 12.2368 10 11.7631V11.3421C10 10.7898 9.55229 10.3421 9 10.3421H8.6875V4.65788C8.6875 2.44737 2.125 2.44738 2.125 4.65788Z" stroke="#161616"/>
<path d="M9.25 3.86816C7.12668 6.42005 5.54573 7.74847 2.26728 8.85265C1.85066 8.99296 1.5625 9.37892 1.5625 9.81853V10.3418" stroke="#161616" stroke-linecap="round"/>
<path d="M6.07881 4.3421H4.92091C3.99802 4.3421 3.24986 3.59395 3.24986 2.67105C3.24986 1.74815 3.99802 1 4.92091 1H6.07881C7.00171 1 7.74986 1.74815 7.74986 2.67105C7.74986 3.59395 7.00171 4.3421 6.07881 4.3421Z" stroke="#161616"/>
<path d="M2.125 10.3418H8.6875" stroke="#161616"/>
<path d="M4.1875 14.5H6.8125" stroke="#161616" stroke-linecap="round"/>
</svg>
