<svg width="32" height="37" viewBox="0 0 32 37" fill="none" xmlns="http://www.w3.org/2000/svg">
<path d="M13.3488 1.40111L4.64536 4.62724C2.63954 5.36908 1 7.71535 1 9.83736V22.6556C1 24.6914 2.3605 27.3655 4.01748 28.5904L11.5175 34.1285C13.9767 35.9572 18.0232 35.9572 20.4825 34.1285L27.9825 28.5904C29.6395 27.3655 31 24.6914 31 22.6556V9.83736C31 7.71535 29.3605 5.36908 27.3546 4.62724L18.6511 1.40111C17.1686 0.866296 14.7965 0.866296 13.3488 1.40111Z" stroke="#292D32" stroke-width="2" stroke-linecap="round" stroke-linejoin="round"/>
<path d="M15.9791 16.393C15.9093 16.393 15.8221 16.393 15.7524 16.393C14.1128 16.3413 12.8047 14.9956 12.8047 13.3567C12.8047 11.6832 14.1826 10.3203 15.8745 10.3203C17.5663 10.3203 18.9442 11.6832 18.9442 13.3567C18.9268 15.0129 17.6186 16.3413 15.9791 16.393Z" stroke="#292D32" stroke-width="2" stroke-linecap="round" stroke-linejoin="round"/>
<path d="M12.5136 21.2229C10.8392 22.327 10.8392 24.1385 12.5136 25.2426C14.4147 26.502 17.5368 26.502 19.438 25.2426C21.1124 24.1385 21.1124 22.327 19.438 21.2229C17.5543 19.9635 14.4322 19.9635 12.5136 21.2229Z" stroke="#292D32" stroke-width="2" stroke-linecap="round" stroke-linejoin="round"/>
</svg>
