<svg width="23" height="23" viewBox="0 0 23 23" fill="none" xmlns="http://www.w3.org/2000/svg">
<path d="M8 12.6333L9.20972 13.6918C9.28959 13.7617 9.39027 13.8 9.49424 13.8H14.5057C14.6097 13.8 14.7104 13.7617 14.7903 13.6918L16 12.6333M9.55556 15.4333H9.56M14.4444 15.4333H14.4489M10.2936 11H13.7064C14.0254 11 14.3199 11.1795 14.4781 11.4703L15.7658 13.8363C15.9192 14.1183 16 14.4375 16 14.7624V17.5333C16 17.7911 15.801 18 15.5556 18H15.1111C14.8656 18 14.6667 17.7911 14.6667 17.5333V17.0667H9.33333V17.5333C9.33333 17.7911 9.13435 18 8.88889 18H8.44444C8.19899 18 8 17.7911 8 17.5333V14.7624C8 14.4375 8.08074 14.1183 8.23424 13.8363L9.52185 11.4703C9.68011 11.1795 9.97464 11 10.2936 11ZM9.77778 15.4333C9.77778 15.5622 9.67828 15.6667 9.55556 15.6667C9.43283 15.6667 9.33333 15.5622 9.33333 15.4333C9.33333 15.3045 9.43283 15.2 9.55556 15.2C9.67828 15.2 9.77778 15.3045 9.77778 15.4333ZM14.6667 15.4333C14.6667 15.5622 14.5672 15.6667 14.4444 15.6667C14.3217 15.6667 14.2222 15.5622 14.2222 15.4333C14.2222 15.3045 14.3217 15.2 14.4444 15.2C14.5672 15.2 14.6667 15.3045 14.6667 15.4333Z" stroke="black" stroke-linecap="round" stroke-linejoin="round"/>
<path d="M1 10.9752C1 7.01539 1 5.0355 2.23015 3.80534C3.46031 2.5752 5.4402 2.5752 9.4 2.5752H13.6C17.5598 2.5752 19.5397 2.5752 20.7698 3.80534C22 5.0355 22 7.01539 22 10.9752V13.0752C22 17.035 22 19.0149 20.7698 20.245C19.5397 21.4752 17.5598 21.4752 13.6 21.4752H9.4C5.4402 21.4752 3.46031 21.4752 2.23015 20.245C1 19.0149 1 17.035 1 13.0752V10.9752Z" stroke="#1C274C" stroke-width="2"/>
<path d="M6.25 2.575V1" stroke="#1C274C" stroke-width="2" stroke-linecap="round"/>
<path d="M16.75 2.575V1" stroke="#1C274C" stroke-width="2" stroke-linecap="round"/>
<path d="M1 7.8252H22" stroke="#1C274C" stroke-width="2" stroke-linecap="round"/>
</svg>
