<svg width="22" height="22" viewBox="0 0 22 22" fill="none" xmlns="http://www.w3.org/2000/svg">
<path d="M1 2.25C1 1.91848 1.1317 1.60054 1.36612 1.36612C1.60054 1.1317 1.91848 1 2.25 1H7.25C7.58152 1 7.89946 1.1317 8.13388 1.36612C8.3683 1.60054 8.5 1.91848 8.5 2.25V8.5C8.5 8.83152 8.3683 9.14946 8.13388 9.38388C7.89946 9.6183 7.58152 9.75 7.25 9.75H2.25C1.91848 9.75 1.60054 9.6183 1.36612 9.38388C1.1317 9.14946 1 8.83152 1 8.5V2.25ZM13.5 2.25C13.5 1.91848 13.6317 1.60054 13.8661 1.36612C14.1005 1.1317 14.4185 1 14.75 1H19.75C20.0815 1 20.3995 1.1317 20.6339 1.36612C20.8683 1.60054 21 1.91848 21 2.25V4.75C21 5.08152 20.8683 5.39946 20.6339 5.63388C20.3995 5.8683 20.0815 6 19.75 6H14.75C14.4185 6 14.1005 5.8683 13.8661 5.63388C13.6317 5.39946 13.5 5.08152 13.5 4.75V2.25ZM1 16C1 15.6685 1.1317 15.3505 1.36612 15.1161C1.60054 14.8817 1.91848 14.75 2.25 14.75H7.25C7.58152 14.75 7.89946 14.8817 8.13388 15.1161C8.3683 15.3505 8.5 15.6685 8.5 16V19.75C8.5 20.0815 8.3683 20.3995 8.13388 20.6339C7.89946 20.8683 7.58152 21 7.25 21H2.25C1.91848 21 1.60054 20.8683 1.36612 20.6339C1.1317 20.3995 1 20.0815 1 19.75V16ZM13.5 12.25C13.5 11.9185 13.6317 11.6005 13.8661 11.3661C14.1005 11.1317 14.4185 11 14.75 11H19.75C20.0815 11 20.3995 11.1317 20.6339 11.3661C20.8683 11.6005 21 11.9185 21 12.25V19.75C21 20.0815 20.8683 20.3995 20.6339 20.6339C20.3995 20.8683 20.0815 21 19.75 21H14.75C14.4185 21 14.1005 20.8683 13.8661 20.6339C13.6317 20.3995 13.5 20.0815 13.5 19.75V12.25Z" stroke="#161616" stroke-width="2"/>
</svg>
