<svg width="435" height="680" viewBox="0 0 435 680" fill="none" xmlns="http://www.w3.org/2000/svg">
<g filter="url(#filter0_i_1238_381)">
<path d="M272.814 268.849L160.27 340.856C133.144 358.211 119.068 390.14 124.555 421.872L140.554 514.414C149.867 568.282 103.611 615.415 49.5773 607.115L0 599.5V660C0 671.046 8.95431 680 20 680H173C205.597 680 229.15 648.829 220.248 617.471L178.257 469.567C167.468 431.564 186.034 391.375 221.965 374.956L381.406 302.097C432.314 278.834 449.867 215.239 418.099 169.157L369.404 98.5206C358.5 82.7038 342.269 71.3388 323.677 66.5029L68 0H20.0008C8.95512 0 0.000811696 8.95428 0.000811696 20V72L235.373 106.1C264.678 110.346 289.24 130.43 299.221 158.308L305.017 174.496C317.588 209.608 304.229 248.749 272.814 268.849Z" fill="url(#paint0_diamond_1238_381)"/>
</g>
<defs>
<filter id="filter0_i_1238_381" x="0" y="0" width="434.025" height="684" filterUnits="userSpaceOnUse" color-interpolation-filters="sRGB">
<feFlood flood-opacity="0" result="BackgroundImageFix"/>
<feBlend mode="normal" in="SourceGraphic" in2="BackgroundImageFix" result="shape"/>
<feColorMatrix in="SourceAlpha" type="matrix" values="0 0 0 0 0 0 0 0 0 0 0 0 0 0 0 0 0 0 127 0" result="hardAlpha"/>
<feOffset dy="4"/>
<feGaussianBlur stdDeviation="2"/>
<feComposite in2="hardAlpha" operator="arithmetic" k2="-1" k3="1"/>
<feColorMatrix type="matrix" values="0 0 0 0 0 0 0 0 0 0 0 0 0 0 0 0 0 0 0.25 0"/>
<feBlend mode="normal" in2="shape" result="effect1_innerShadow_1238_381"/>
</filter>
<radialGradient id="paint0_diamond_1238_381" cx="0" cy="0" r="1" gradientUnits="userSpaceOnUse" gradientTransform="translate(237.75 340) rotate(-149.303) scale(470.126 380.994)">
<stop stop-color="#61348C"/>
<stop offset="1" stop-color="#A75AF2"/>
</radialGradient>
</defs>
</svg>
