<svg width="27" height="22" viewBox="0 0 27 22" fill="none" xmlns="http://www.w3.org/2000/svg">
<path d="M22.875 11.625C22.875 9.9 24.275 8.5 26 8.5V7.25C26 2.25 24.75 1 19.75 1H7.25C2.25 1 1 2.25 1 7.25V7.875C2.725 7.875 4.125 9.275 4.125 11C4.125 12.725 2.725 14.125 1 14.125V14.75C1 19.75 2.25 21 7.25 21H19.75C24.75 21 26 19.75 26 14.75C24.275 14.75 22.875 13.35 22.875 11.625Z" stroke="#161616" stroke-width="2" stroke-linecap="round" stroke-linejoin="round"/>
<path d="M11 1V21" stroke="#161616" stroke-width="2" stroke-linecap="round" stroke-linejoin="round" stroke-dasharray="12.5 12.5"/>
</svg>
