<svg width="118" height="58" viewBox="0 0 118 58" fill="none" xmlns="http://www.w3.org/2000/svg">
<path d="M59 0L65.7354 20.7295H87.5317L69.8981 33.541L76.6336 54.2705L59 41.459L41.3664 54.2705L48.1019 33.541L30.4683 20.7295H52.2646L59 0Z" fill="#F79E1B"/>
<path d="M15 30L18.3677 40.3647H29.2658L20.4491 46.7705L23.8168 57.1353L15 50.7295L6.18322 57.1353L9.55093 46.7705L0.734152 40.3647H11.6323L15 30Z" fill="#F79E1B"/>
<path d="M103 30L106.368 40.3647H117.266L108.449 46.7705L111.817 57.1353L103 50.7295L94.1832 57.1353L97.5509 46.7705L88.7342 40.3647H99.6323L103 30Z" fill="#F79E1B"/>
</svg>
